<mxfile host="app.diagrams.net" modified="2023-10-23T01:36:27.156Z" agent="Mozilla/5.0 (X11; Linux x86_64) AppleWebKit/537.36 (KHTML, like Gecko) Chrome/116.0.0.0 Safari/537.36" etag="ollVyFJt3fWhEIVFb_FH" version="21.8.0" type="device" pages="3">
  <diagram name="Cliente" id="xvG3uPi_rN5BDHRcDuz1">
    <mxGraphModel dx="1028" dy="572" grid="1" gridSize="10" guides="1" tooltips="1" connect="1" arrows="1" fold="1" page="1" pageScale="1" pageWidth="827" pageHeight="1169" math="0" shadow="0">
      <root>
        <mxCell id="0" />
        <mxCell id="1" parent="0" />
        <mxCell id="9v-jv3Di4OftpI33tLMZ-1" value="Cliente" style="shape=umlActor;verticalLabelPosition=bottom;verticalAlign=top;html=1;outlineConnect=0;" vertex="1" parent="1">
          <mxGeometry x="50" y="180" width="30" height="60" as="geometry" />
        </mxCell>
        <mxCell id="9v-jv3Di4OftpI33tLMZ-3" value="Fazer Login" style="ellipse;whiteSpace=wrap;html=1;" vertex="1" parent="1">
          <mxGeometry x="210" y="190" width="120" height="80" as="geometry" />
        </mxCell>
        <mxCell id="9v-jv3Di4OftpI33tLMZ-4" value="" style="endArrow=none;html=1;rounded=0;entryX=0;entryY=0.5;entryDx=0;entryDy=0;exitX=1;exitY=0.3333333333333333;exitDx=0;exitDy=0;exitPerimeter=0;" edge="1" parent="1" source="9v-jv3Di4OftpI33tLMZ-1" target="9v-jv3Di4OftpI33tLMZ-3">
          <mxGeometry width="50" height="50" relative="1" as="geometry">
            <mxPoint x="150" y="190" as="sourcePoint" />
            <mxPoint x="200" y="140" as="targetPoint" />
          </mxGeometry>
        </mxCell>
        <mxCell id="9v-jv3Di4OftpI33tLMZ-5" value="Verrifica senha" style="ellipse;whiteSpace=wrap;html=1;" vertex="1" parent="1">
          <mxGeometry x="510" y="130" width="120" height="80" as="geometry" />
        </mxCell>
        <mxCell id="9v-jv3Di4OftpI33tLMZ-10" value="" style="endArrow=open;endSize=12;dashed=1;html=1;rounded=0;exitX=1;exitY=0.5;exitDx=0;exitDy=0;" edge="1" parent="1" source="9v-jv3Di4OftpI33tLMZ-3" target="9v-jv3Di4OftpI33tLMZ-5">
          <mxGeometry width="160" relative="1" as="geometry">
            <mxPoint x="320" y="360" as="sourcePoint" />
            <mxPoint x="480" y="360" as="targetPoint" />
          </mxGeometry>
        </mxCell>
        <mxCell id="9v-jv3Di4OftpI33tLMZ-11" value="Senha Incorreta" style="ellipse;whiteSpace=wrap;html=1;" vertex="1" parent="1">
          <mxGeometry x="500" y="250" width="140" height="70" as="geometry" />
        </mxCell>
        <mxCell id="9v-jv3Di4OftpI33tLMZ-12" value="" style="endArrow=open;endSize=12;dashed=1;html=1;rounded=0;entryX=1;entryY=1;entryDx=0;entryDy=0;exitX=0.007;exitY=0.643;exitDx=0;exitDy=0;exitPerimeter=0;" edge="1" parent="1" source="9v-jv3Di4OftpI33tLMZ-11" target="9v-jv3Di4OftpI33tLMZ-3">
          <mxGeometry x="0.0083" width="160" relative="1" as="geometry">
            <mxPoint x="320" y="360" as="sourcePoint" />
            <mxPoint x="480" y="360" as="targetPoint" />
            <mxPoint as="offset" />
          </mxGeometry>
        </mxCell>
        <mxCell id="9v-jv3Di4OftpI33tLMZ-13" value="Ecomerce" style="shape=umlFrame;whiteSpace=wrap;html=1;pointerEvents=0;" vertex="1" parent="1">
          <mxGeometry x="130" y="20" width="610" height="2050" as="geometry" />
        </mxCell>
        <mxCell id="9v-jv3Di4OftpI33tLMZ-14" value="Acessa a plataforma" style="ellipse;whiteSpace=wrap;html=1;" vertex="1" parent="1">
          <mxGeometry x="210" y="70" width="140" height="70" as="geometry" />
        </mxCell>
        <mxCell id="9v-jv3Di4OftpI33tLMZ-15" value="Exibe produtos&lt;b&gt;&lt;br&gt;&lt;/b&gt;" style="ellipse;whiteSpace=wrap;html=1;" vertex="1" parent="1">
          <mxGeometry x="500" y="40" width="140" height="60" as="geometry" />
        </mxCell>
        <mxCell id="9v-jv3Di4OftpI33tLMZ-17" value="" style="endArrow=none;html=1;rounded=0;entryX=0;entryY=0.5;entryDx=0;entryDy=0;" edge="1" parent="1" target="9v-jv3Di4OftpI33tLMZ-14">
          <mxGeometry width="50" height="50" relative="1" as="geometry">
            <mxPoint x="80" y="200" as="sourcePoint" />
            <mxPoint x="440" y="110" as="targetPoint" />
          </mxGeometry>
        </mxCell>
        <mxCell id="9v-jv3Di4OftpI33tLMZ-18" value="" style="endArrow=open;endSize=12;dashed=1;html=1;rounded=0;exitX=1;exitY=0.5;exitDx=0;exitDy=0;entryX=0;entryY=0.5;entryDx=0;entryDy=0;" edge="1" parent="1" source="9v-jv3Di4OftpI33tLMZ-14" target="9v-jv3Di4OftpI33tLMZ-15">
          <mxGeometry x="0.0065" width="160" relative="1" as="geometry">
            <mxPoint x="350" y="340" as="sourcePoint" />
            <mxPoint x="451" y="327" as="targetPoint" />
            <mxPoint as="offset" />
          </mxGeometry>
        </mxCell>
        <mxCell id="9v-jv3Di4OftpI33tLMZ-20" value="Fazer compra&lt;b&gt;&lt;br&gt;&lt;/b&gt;" style="ellipse;whiteSpace=wrap;html=1;" vertex="1" parent="1">
          <mxGeometry x="210" y="380" width="140" height="80" as="geometry" />
        </mxCell>
        <mxCell id="9v-jv3Di4OftpI33tLMZ-21" value="Verificar dados de&lt;br&gt;pagamento" style="ellipse;whiteSpace=wrap;html=1;" vertex="1" parent="1">
          <mxGeometry x="500" y="340" width="140" height="70" as="geometry" />
        </mxCell>
        <mxCell id="9v-jv3Di4OftpI33tLMZ-22" value="Calcular frete" style="ellipse;whiteSpace=wrap;html=1;" vertex="1" parent="1">
          <mxGeometry x="210" y="630" width="140" height="70" as="geometry" />
        </mxCell>
        <mxCell id="9v-jv3Di4OftpI33tLMZ-23" value="Processar pagamento" style="ellipse;whiteSpace=wrap;html=1;" vertex="1" parent="1">
          <mxGeometry x="500" y="425" width="140" height="70" as="geometry" />
        </mxCell>
        <mxCell id="9v-jv3Di4OftpI33tLMZ-24" value="Notificar anunciante" style="ellipse;whiteSpace=wrap;html=1;" vertex="1" parent="1">
          <mxGeometry x="500" y="530" width="140" height="70" as="geometry" />
        </mxCell>
        <mxCell id="9v-jv3Di4OftpI33tLMZ-30" value="" style="endArrow=none;html=1;rounded=0;entryX=0;entryY=0.5;entryDx=0;entryDy=0;exitX=1;exitY=0.3333333333333333;exitDx=0;exitDy=0;exitPerimeter=0;" edge="1" parent="1" source="9v-jv3Di4OftpI33tLMZ-1" target="9v-jv3Di4OftpI33tLMZ-20">
          <mxGeometry width="50" height="50" relative="1" as="geometry">
            <mxPoint x="90" y="210" as="sourcePoint" />
            <mxPoint x="220" y="155" as="targetPoint" />
          </mxGeometry>
        </mxCell>
        <mxCell id="9v-jv3Di4OftpI33tLMZ-31" value="" style="endArrow=open;endSize=12;dashed=1;html=1;rounded=0;exitX=1;exitY=0.5;exitDx=0;exitDy=0;entryX=0;entryY=0.5;entryDx=0;entryDy=0;" edge="1" parent="1" source="9v-jv3Di4OftpI33tLMZ-20" target="9v-jv3Di4OftpI33tLMZ-21">
          <mxGeometry x="0.0065" width="160" relative="1" as="geometry">
            <mxPoint x="360" y="325" as="sourcePoint" />
            <mxPoint x="520" y="293" as="targetPoint" />
            <mxPoint as="offset" />
          </mxGeometry>
        </mxCell>
        <mxCell id="9v-jv3Di4OftpI33tLMZ-32" value="" style="endArrow=open;endSize=12;dashed=1;html=1;rounded=0;exitX=1;exitY=0.5;exitDx=0;exitDy=0;entryX=0;entryY=0.4;entryDx=0;entryDy=0;entryPerimeter=0;" edge="1" parent="1" source="9v-jv3Di4OftpI33tLMZ-20" target="9v-jv3Di4OftpI33tLMZ-23">
          <mxGeometry x="0.0065" width="160" relative="1" as="geometry">
            <mxPoint x="360" y="430" as="sourcePoint" />
            <mxPoint x="510" y="385" as="targetPoint" />
            <mxPoint as="offset" />
          </mxGeometry>
        </mxCell>
        <mxCell id="9v-jv3Di4OftpI33tLMZ-34" value="Verifica endereÃ§o" style="ellipse;whiteSpace=wrap;html=1;" vertex="1" parent="1">
          <mxGeometry x="500" y="630" width="140" height="70" as="geometry" />
        </mxCell>
        <mxCell id="9v-jv3Di4OftpI33tLMZ-35" value="" style="endArrow=open;endSize=12;dashed=1;html=1;rounded=0;exitX=1;exitY=0.5;exitDx=0;exitDy=0;entryX=0;entryY=0.5;entryDx=0;entryDy=0;" edge="1" parent="1" source="9v-jv3Di4OftpI33tLMZ-22" target="9v-jv3Di4OftpI33tLMZ-34">
          <mxGeometry x="0.0065" width="160" relative="1" as="geometry">
            <mxPoint x="380" y="450" as="sourcePoint" />
            <mxPoint x="530" y="405" as="targetPoint" />
            <mxPoint as="offset" />
          </mxGeometry>
        </mxCell>
        <mxCell id="9v-jv3Di4OftpI33tLMZ-36" value="" style="endArrow=none;html=1;rounded=0;entryX=0.5;entryY=0;entryDx=0;entryDy=0;exitX=0.5;exitY=1;exitDx=0;exitDy=0;" edge="1" parent="1" source="9v-jv3Di4OftpI33tLMZ-20" target="9v-jv3Di4OftpI33tLMZ-22">
          <mxGeometry width="50" height="50" relative="1" as="geometry">
            <mxPoint x="90" y="380" as="sourcePoint" />
            <mxPoint x="220" y="430" as="targetPoint" />
          </mxGeometry>
        </mxCell>
        <mxCell id="9v-jv3Di4OftpI33tLMZ-37" value="Anunciante" style="shape=umlActor;verticalLabelPosition=bottom;verticalAlign=top;html=1;" vertex="1" parent="1">
          <mxGeometry x="780" y="190" width="30" height="60" as="geometry" />
        </mxCell>
        <mxCell id="9v-jv3Di4OftpI33tLMZ-38" value="" style="endArrow=none;html=1;rounded=0;entryX=1;entryY=0.5;entryDx=0;entryDy=0;exitX=0;exitY=0.3333333333333333;exitDx=0;exitDy=0;exitPerimeter=0;" edge="1" parent="1" source="9v-jv3Di4OftpI33tLMZ-37" target="9v-jv3Di4OftpI33tLMZ-24">
          <mxGeometry width="50" height="50" relative="1" as="geometry">
            <mxPoint x="90" y="210" as="sourcePoint" />
            <mxPoint x="220" y="260" as="targetPoint" />
          </mxGeometry>
        </mxCell>
        <mxCell id="9v-jv3Di4OftpI33tLMZ-39" value="Calcular total" style="ellipse;whiteSpace=wrap;html=1;" vertex="1" parent="1">
          <mxGeometry x="355" y="720" width="140" height="70" as="geometry" />
        </mxCell>
        <mxCell id="9v-jv3Di4OftpI33tLMZ-40" value="" style="endArrow=none;html=1;rounded=0;entryX=0.5;entryY=0;entryDx=0;entryDy=0;exitX=0.5;exitY=1;exitDx=0;exitDy=0;" edge="1" parent="1" source="9v-jv3Di4OftpI33tLMZ-20" target="9v-jv3Di4OftpI33tLMZ-39">
          <mxGeometry width="50" height="50" relative="1" as="geometry">
            <mxPoint x="290" y="470" as="sourcePoint" />
            <mxPoint x="290" y="640" as="targetPoint" />
          </mxGeometry>
        </mxCell>
        <mxCell id="9v-jv3Di4OftpI33tLMZ-41" value="Adicionar ao carrinho" style="ellipse;whiteSpace=wrap;html=1;" vertex="1" parent="1">
          <mxGeometry x="200" y="850" width="140" height="70" as="geometry" />
        </mxCell>
        <mxCell id="9v-jv3Di4OftpI33tLMZ-42" value="" style="endArrow=none;html=1;rounded=0;entryX=0;entryY=0.5;entryDx=0;entryDy=0;exitX=1;exitY=0.3333333333333333;exitDx=0;exitDy=0;exitPerimeter=0;" edge="1" parent="1" source="9v-jv3Di4OftpI33tLMZ-1" target="9v-jv3Di4OftpI33tLMZ-41">
          <mxGeometry width="50" height="50" relative="1" as="geometry">
            <mxPoint x="300" y="310" as="sourcePoint" />
            <mxPoint x="300" y="480" as="targetPoint" />
          </mxGeometry>
        </mxCell>
        <mxCell id="9v-jv3Di4OftpI33tLMZ-43" value="" style="endArrow=none;html=1;rounded=0;entryX=0.5;entryY=0;entryDx=0;entryDy=0;exitX=0.5;exitY=1;exitDx=0;exitDy=0;" edge="1" parent="1" source="9v-jv3Di4OftpI33tLMZ-22" target="9v-jv3Di4OftpI33tLMZ-41">
          <mxGeometry width="50" height="50" relative="1" as="geometry">
            <mxPoint x="310" y="490" as="sourcePoint" />
            <mxPoint x="310" y="660" as="targetPoint" />
          </mxGeometry>
        </mxCell>
        <mxCell id="9v-jv3Di4OftpI33tLMZ-44" value="" style="endArrow=none;html=1;rounded=0;entryX=0.5;entryY=0;entryDx=0;entryDy=0;exitX=0;exitY=0.5;exitDx=0;exitDy=0;" edge="1" parent="1" source="9v-jv3Di4OftpI33tLMZ-39" target="9v-jv3Di4OftpI33tLMZ-41">
          <mxGeometry width="50" height="50" relative="1" as="geometry">
            <mxPoint x="320" y="500" as="sourcePoint" />
            <mxPoint x="320" y="670" as="targetPoint" />
          </mxGeometry>
        </mxCell>
        <mxCell id="9v-jv3Di4OftpI33tLMZ-45" value="" style="endArrow=open;endSize=12;dashed=1;html=1;rounded=0;exitX=1;exitY=0.5;exitDx=0;exitDy=0;entryX=0;entryY=0.5;entryDx=0;entryDy=0;" edge="1" parent="1" source="9v-jv3Di4OftpI33tLMZ-41" target="9v-jv3Di4OftpI33tLMZ-46">
          <mxGeometry x="0.0065" width="160" relative="1" as="geometry">
            <mxPoint x="360" y="675" as="sourcePoint" />
            <mxPoint x="510" y="675" as="targetPoint" />
            <mxPoint as="offset" />
          </mxGeometry>
        </mxCell>
        <mxCell id="9v-jv3Di4OftpI33tLMZ-46" value="Salva no carrinho" style="ellipse;whiteSpace=wrap;html=1;" vertex="1" parent="1">
          <mxGeometry x="500" y="850" width="140" height="70" as="geometry" />
        </mxCell>
        <mxCell id="9v-jv3Di4OftpI33tLMZ-47" value="Cancelar Compra" style="ellipse;whiteSpace=wrap;html=1;" vertex="1" parent="1">
          <mxGeometry x="200" y="1000" width="140" height="70" as="geometry" />
        </mxCell>
        <mxCell id="9v-jv3Di4OftpI33tLMZ-48" value="Verificar status da entrega" style="ellipse;whiteSpace=wrap;html=1;" vertex="1" parent="1">
          <mxGeometry x="200" y="1110" width="140" height="70" as="geometry" />
        </mxCell>
        <mxCell id="9v-jv3Di4OftpI33tLMZ-49" value="NÃ£o Ã© possÃ­vel cancelar" style="ellipse;whiteSpace=wrap;html=1;" vertex="1" parent="1">
          <mxGeometry x="500" y="1070" width="140" height="70" as="geometry" />
        </mxCell>
        <mxCell id="9v-jv3Di4OftpI33tLMZ-50" value="Reembolsar dinheiro" style="ellipse;whiteSpace=wrap;html=1;" vertex="1" parent="1">
          <mxGeometry x="500" y="960" width="140" height="70" as="geometry" />
        </mxCell>
        <mxCell id="9v-jv3Di4OftpI33tLMZ-51" value="" style="endArrow=open;endSize=12;dashed=1;html=1;rounded=0;exitX=1;exitY=0.5;exitDx=0;exitDy=0;entryX=0;entryY=0.5;entryDx=0;entryDy=0;" edge="1" parent="1" source="9v-jv3Di4OftpI33tLMZ-47" target="9v-jv3Di4OftpI33tLMZ-50">
          <mxGeometry x="0.0065" width="160" relative="1" as="geometry">
            <mxPoint x="350" y="895" as="sourcePoint" />
            <mxPoint x="510" y="895" as="targetPoint" />
            <mxPoint as="offset" />
          </mxGeometry>
        </mxCell>
        <mxCell id="9v-jv3Di4OftpI33tLMZ-52" value="" style="endArrow=open;endSize=12;dashed=1;html=1;rounded=0;exitX=0;exitY=0.5;exitDx=0;exitDy=0;entryX=1;entryY=0.5;entryDx=0;entryDy=0;" edge="1" parent="1" source="9v-jv3Di4OftpI33tLMZ-49" target="9v-jv3Di4OftpI33tLMZ-47">
          <mxGeometry x="0.0065" width="160" relative="1" as="geometry">
            <mxPoint x="360" y="905" as="sourcePoint" />
            <mxPoint x="520" y="905" as="targetPoint" />
            <mxPoint as="offset" />
          </mxGeometry>
        </mxCell>
        <mxCell id="9v-jv3Di4OftpI33tLMZ-53" value="" style="endArrow=none;html=1;rounded=0;entryX=1;entryY=0.5;entryDx=0;entryDy=0;exitX=0;exitY=0.5;exitDx=0;exitDy=0;" edge="1" parent="1" source="9v-jv3Di4OftpI33tLMZ-24" target="9v-jv3Di4OftpI33tLMZ-20">
          <mxGeometry width="50" height="50" relative="1" as="geometry">
            <mxPoint x="790" y="220" as="sourcePoint" />
            <mxPoint x="650" y="575" as="targetPoint" />
          </mxGeometry>
        </mxCell>
        <mxCell id="9v-jv3Di4OftpI33tLMZ-54" value="" style="endArrow=none;html=1;rounded=0;exitX=0.5;exitY=1;exitDx=0;exitDy=0;entryX=1;entryY=0.5;entryDx=0;entryDy=0;" edge="1" parent="1" source="9v-jv3Di4OftpI33tLMZ-24" target="9v-jv3Di4OftpI33tLMZ-47">
          <mxGeometry width="50" height="50" relative="1" as="geometry">
            <mxPoint x="510" y="575" as="sourcePoint" />
            <mxPoint x="360" y="430" as="targetPoint" />
            <Array as="points">
              <mxPoint x="700" y="620" />
              <mxPoint x="700" y="940" />
              <mxPoint x="400" y="940" />
            </Array>
          </mxGeometry>
        </mxCell>
        <mxCell id="9v-jv3Di4OftpI33tLMZ-55" value="" style="endArrow=none;html=1;rounded=0;exitX=0.5;exitY=0;exitDx=0;exitDy=0;entryX=0.5;entryY=1;entryDx=0;entryDy=0;" edge="1" parent="1" source="9v-jv3Di4OftpI33tLMZ-48" target="9v-jv3Di4OftpI33tLMZ-47">
          <mxGeometry width="50" height="50" relative="1" as="geometry">
            <mxPoint x="380" y="1110" as="sourcePoint" />
            <mxPoint x="430" y="1060" as="targetPoint" />
          </mxGeometry>
        </mxCell>
        <mxCell id="9v-jv3Di4OftpI33tLMZ-56" value="Salvar no histÃ³rico&lt;br&gt;de compras" style="ellipse;whiteSpace=wrap;html=1;" vertex="1" parent="1">
          <mxGeometry x="300" y="290" width="140" height="70" as="geometry" />
        </mxCell>
        <mxCell id="9v-jv3Di4OftpI33tLMZ-57" value="" style="endArrow=open;endSize=12;dashed=1;html=1;rounded=0;exitX=0.5;exitY=0;exitDx=0;exitDy=0;entryX=0;entryY=0.5;entryDx=0;entryDy=0;" edge="1" parent="1" source="9v-jv3Di4OftpI33tLMZ-20" target="9v-jv3Di4OftpI33tLMZ-56">
          <mxGeometry x="0.0065" width="160" relative="1" as="geometry">
            <mxPoint x="360" y="430" as="sourcePoint" />
            <mxPoint x="510" y="385" as="targetPoint" />
            <mxPoint as="offset" />
          </mxGeometry>
        </mxCell>
        <mxCell id="9v-jv3Di4OftpI33tLMZ-58" value="Ver compras" style="ellipse;whiteSpace=wrap;html=1;" vertex="1" parent="1">
          <mxGeometry x="200" y="1240" width="140" height="70" as="geometry" />
        </mxCell>
        <mxCell id="9v-jv3Di4OftpI33tLMZ-59" value="Ver carrinho" style="ellipse;whiteSpace=wrap;html=1;" vertex="1" parent="1">
          <mxGeometry x="200" y="1370" width="140" height="70" as="geometry" />
        </mxCell>
        <mxCell id="9v-jv3Di4OftpI33tLMZ-60" value="Remover item" style="ellipse;whiteSpace=wrap;html=1;" vertex="1" parent="1">
          <mxGeometry x="200" y="1500" width="140" height="70" as="geometry" />
        </mxCell>
        <mxCell id="9v-jv3Di4OftpI33tLMZ-65" value="" style="endArrow=none;html=1;rounded=0;entryX=0;entryY=0.5;entryDx=0;entryDy=0;exitX=1;exitY=0.3333333333333333;exitDx=0;exitDy=0;exitPerimeter=0;" edge="1" parent="1" source="9v-jv3Di4OftpI33tLMZ-1" target="9v-jv3Di4OftpI33tLMZ-47">
          <mxGeometry width="50" height="50" relative="1" as="geometry">
            <mxPoint x="90" y="210" as="sourcePoint" />
            <mxPoint x="210" y="895" as="targetPoint" />
          </mxGeometry>
        </mxCell>
        <mxCell id="9v-jv3Di4OftpI33tLMZ-66" value="" style="endArrow=none;html=1;rounded=0;entryX=0;entryY=0.5;entryDx=0;entryDy=0;exitX=1;exitY=0.3333333333333333;exitDx=0;exitDy=0;exitPerimeter=0;" edge="1" parent="1" source="9v-jv3Di4OftpI33tLMZ-1" target="9v-jv3Di4OftpI33tLMZ-58">
          <mxGeometry width="50" height="50" relative="1" as="geometry">
            <mxPoint x="100" y="220" as="sourcePoint" />
            <mxPoint x="220" y="905" as="targetPoint" />
          </mxGeometry>
        </mxCell>
        <mxCell id="9v-jv3Di4OftpI33tLMZ-67" value="" style="endArrow=none;html=1;rounded=0;exitX=0.5;exitY=0;exitDx=0;exitDy=0;entryX=0.5;entryY=1;entryDx=0;entryDy=0;" edge="1" parent="1" source="9v-jv3Di4OftpI33tLMZ-58" target="9v-jv3Di4OftpI33tLMZ-48">
          <mxGeometry width="50" height="50" relative="1" as="geometry">
            <mxPoint x="280" y="1120" as="sourcePoint" />
            <mxPoint x="280" y="1080" as="targetPoint" />
          </mxGeometry>
        </mxCell>
        <mxCell id="9v-jv3Di4OftpI33tLMZ-68" value="Exibir compras" style="ellipse;whiteSpace=wrap;html=1;" vertex="1" parent="1">
          <mxGeometry x="500" y="1240" width="140" height="70" as="geometry" />
        </mxCell>
        <mxCell id="9v-jv3Di4OftpI33tLMZ-69" value="" style="endArrow=open;endSize=12;dashed=1;html=1;rounded=0;exitX=1;exitY=0.5;exitDx=0;exitDy=0;entryX=0;entryY=0.5;entryDx=0;entryDy=0;" edge="1" parent="1" source="9v-jv3Di4OftpI33tLMZ-58" target="9v-jv3Di4OftpI33tLMZ-68">
          <mxGeometry x="0.0065" width="160" relative="1" as="geometry">
            <mxPoint x="350" y="1045" as="sourcePoint" />
            <mxPoint x="510" y="1005" as="targetPoint" />
            <mxPoint as="offset" />
          </mxGeometry>
        </mxCell>
        <mxCell id="9v-jv3Di4OftpI33tLMZ-70" value="Exibir itens no carrinho" style="ellipse;whiteSpace=wrap;html=1;" vertex="1" parent="1">
          <mxGeometry x="500" y="1370" width="140" height="70" as="geometry" />
        </mxCell>
        <mxCell id="9v-jv3Di4OftpI33tLMZ-72" value="" style="endArrow=open;endSize=12;dashed=1;html=1;rounded=0;exitX=1;exitY=0.5;exitDx=0;exitDy=0;entryX=0;entryY=0.5;entryDx=0;entryDy=0;" edge="1" parent="1" source="9v-jv3Di4OftpI33tLMZ-59" target="9v-jv3Di4OftpI33tLMZ-70">
          <mxGeometry x="0.0065" width="160" relative="1" as="geometry">
            <mxPoint x="350" y="1285" as="sourcePoint" />
            <mxPoint x="510" y="1285" as="targetPoint" />
            <mxPoint as="offset" />
          </mxGeometry>
        </mxCell>
        <mxCell id="9v-jv3Di4OftpI33tLMZ-73" value="" style="endArrow=none;html=1;rounded=0;entryX=0;entryY=0.5;entryDx=0;entryDy=0;exitX=0.5;exitY=1;exitDx=0;exitDy=0;" edge="1" parent="1" source="9v-jv3Di4OftpI33tLMZ-39" target="9v-jv3Di4OftpI33tLMZ-70">
          <mxGeometry width="50" height="50" relative="1" as="geometry">
            <mxPoint x="365" y="765" as="sourcePoint" />
            <mxPoint x="280" y="860" as="targetPoint" />
          </mxGeometry>
        </mxCell>
        <mxCell id="9v-jv3Di4OftpI33tLMZ-74" value="" style="endArrow=none;html=1;rounded=0;entryX=0;entryY=0.5;entryDx=0;entryDy=0;exitX=1;exitY=0.3333333333333333;exitDx=0;exitDy=0;exitPerimeter=0;" edge="1" parent="1" source="9v-jv3Di4OftpI33tLMZ-1" target="9v-jv3Di4OftpI33tLMZ-59">
          <mxGeometry width="50" height="50" relative="1" as="geometry">
            <mxPoint x="435" y="800" as="sourcePoint" />
            <mxPoint x="510" y="1415" as="targetPoint" />
          </mxGeometry>
        </mxCell>
        <mxCell id="9v-jv3Di4OftpI33tLMZ-75" value="Atualizar carrinho" style="ellipse;whiteSpace=wrap;html=1;" vertex="1" parent="1">
          <mxGeometry x="500" y="1500" width="140" height="70" as="geometry" />
        </mxCell>
        <mxCell id="9v-jv3Di4OftpI33tLMZ-76" value="" style="endArrow=open;endSize=12;dashed=1;html=1;rounded=0;exitX=1;exitY=0.5;exitDx=0;exitDy=0;entryX=0;entryY=0.5;entryDx=0;entryDy=0;" edge="1" parent="1" source="9v-jv3Di4OftpI33tLMZ-60" target="9v-jv3Di4OftpI33tLMZ-75">
          <mxGeometry x="0.0065" width="160" relative="1" as="geometry">
            <mxPoint x="350" y="1415" as="sourcePoint" />
            <mxPoint x="510" y="1415" as="targetPoint" />
            <mxPoint as="offset" />
          </mxGeometry>
        </mxCell>
        <mxCell id="9v-jv3Di4OftpI33tLMZ-77" value="" style="endArrow=none;html=1;rounded=0;entryX=0;entryY=0.5;entryDx=0;entryDy=0;exitX=0.5;exitY=1;exitDx=0;exitDy=0;" edge="1" parent="1" source="9v-jv3Di4OftpI33tLMZ-39" target="9v-jv3Di4OftpI33tLMZ-75">
          <mxGeometry width="50" height="50" relative="1" as="geometry">
            <mxPoint x="430" y="790" as="sourcePoint" />
            <mxPoint x="510" y="1415" as="targetPoint" />
          </mxGeometry>
        </mxCell>
        <mxCell id="9v-jv3Di4OftpI33tLMZ-78" value="" style="endArrow=none;html=1;rounded=0;entryX=0;entryY=0.5;entryDx=0;entryDy=0;exitX=1;exitY=0.3333333333333333;exitDx=0;exitDy=0;exitPerimeter=0;" edge="1" parent="1" source="9v-jv3Di4OftpI33tLMZ-1" target="T-Le3lcPbXyMvCjPnzxk-1">
          <mxGeometry width="50" height="50" relative="1" as="geometry">
            <mxPoint x="90" y="210" as="sourcePoint" />
            <mxPoint x="210" y="1415" as="targetPoint" />
          </mxGeometry>
        </mxCell>
        <mxCell id="T-Le3lcPbXyMvCjPnzxk-1" value="Filtrar" style="ellipse;whiteSpace=wrap;html=1;" vertex="1" parent="1">
          <mxGeometry x="200" y="1630" width="140" height="70" as="geometry" />
        </mxCell>
        <mxCell id="T-Le3lcPbXyMvCjPnzxk-2" value="Exibe por filtro" style="ellipse;whiteSpace=wrap;html=1;" vertex="1" parent="1">
          <mxGeometry x="500" y="1630" width="140" height="70" as="geometry" />
        </mxCell>
        <mxCell id="T-Le3lcPbXyMvCjPnzxk-3" value="Buscar por nome" style="ellipse;whiteSpace=wrap;html=1;" vertex="1" parent="1">
          <mxGeometry x="200" y="1780" width="140" height="70" as="geometry" />
        </mxCell>
        <mxCell id="T-Le3lcPbXyMvCjPnzxk-4" value="Exibe por nome" style="ellipse;whiteSpace=wrap;html=1;" vertex="1" parent="1">
          <mxGeometry x="490" y="1780" width="140" height="70" as="geometry" />
        </mxCell>
        <mxCell id="T-Le3lcPbXyMvCjPnzxk-8" value="" style="endArrow=open;endSize=12;dashed=1;html=1;rounded=0;exitX=1;exitY=0.5;exitDx=0;exitDy=0;entryX=0;entryY=0.5;entryDx=0;entryDy=0;" edge="1" parent="1" source="T-Le3lcPbXyMvCjPnzxk-3" target="T-Le3lcPbXyMvCjPnzxk-4">
          <mxGeometry x="0.0065" width="160" relative="1" as="geometry">
            <mxPoint x="350" y="1495" as="sourcePoint" />
            <mxPoint x="510" y="1495" as="targetPoint" />
            <mxPoint as="offset" />
          </mxGeometry>
        </mxCell>
        <mxCell id="T-Le3lcPbXyMvCjPnzxk-13" value="" style="endArrow=open;endSize=12;dashed=1;html=1;rounded=0;exitX=1;exitY=0.5;exitDx=0;exitDy=0;entryX=0;entryY=0.5;entryDx=0;entryDy=0;" edge="1" parent="1" source="T-Le3lcPbXyMvCjPnzxk-1" target="T-Le3lcPbXyMvCjPnzxk-2">
          <mxGeometry x="0.0065" width="160" relative="1" as="geometry">
            <mxPoint x="350" y="1799" as="sourcePoint" />
            <mxPoint x="500" y="1799" as="targetPoint" />
            <mxPoint as="offset" />
          </mxGeometry>
        </mxCell>
        <mxCell id="T-Le3lcPbXyMvCjPnzxk-14" value="" style="endArrow=none;html=1;rounded=0;exitX=1;exitY=0.3333333333333333;exitDx=0;exitDy=0;exitPerimeter=0;" edge="1" parent="1" source="9v-jv3Di4OftpI33tLMZ-1">
          <mxGeometry width="50" height="50" relative="1" as="geometry">
            <mxPoint x="90" y="210" as="sourcePoint" />
            <mxPoint x="200" y="1540" as="targetPoint" />
          </mxGeometry>
        </mxCell>
        <mxCell id="T-Le3lcPbXyMvCjPnzxk-15" value="" style="endArrow=none;html=1;rounded=0;entryX=0;entryY=0.5;entryDx=0;entryDy=0;" edge="1" parent="1" target="T-Le3lcPbXyMvCjPnzxk-3">
          <mxGeometry width="50" height="50" relative="1" as="geometry">
            <mxPoint x="80" y="200" as="sourcePoint" />
            <mxPoint x="220" y="1685" as="targetPoint" />
          </mxGeometry>
        </mxCell>
        <mxCell id="T-Le3lcPbXyMvCjPnzxk-16" value="" style="endArrow=none;html=1;rounded=0;entryX=0.5;entryY=1;entryDx=0;entryDy=0;exitX=0.5;exitY=0;exitDx=0;exitDy=0;" edge="1" parent="1" source="T-Le3lcPbXyMvCjPnzxk-3" target="T-Le3lcPbXyMvCjPnzxk-1">
          <mxGeometry width="50" height="50" relative="1" as="geometry">
            <mxPoint x="190" y="1740" as="sourcePoint" />
            <mxPoint x="240" y="1690" as="targetPoint" />
          </mxGeometry>
        </mxCell>
      </root>
    </mxGraphModel>
  </diagram>
  <diagram id="x-gBP_388N0LEGvsKlfI" name="Anunciante">
    <mxGraphModel dx="1748" dy="972" grid="1" gridSize="10" guides="1" tooltips="1" connect="1" arrows="1" fold="1" page="1" pageScale="1" pageWidth="827" pageHeight="1169" math="0" shadow="0">
      <root>
        <mxCell id="0" />
        <mxCell id="1" parent="0" />
        <mxCell id="aJFQGZCMPf-5QO5Pl22j-1" value="Ecomerce" style="shape=umlFrame;whiteSpace=wrap;html=1;pointerEvents=0;" vertex="1" parent="1">
          <mxGeometry x="220" y="50" width="480" height="2330" as="geometry" />
        </mxCell>
        <mxCell id="XYX-xVBKLh2NWxnLYjrE-1" value="Anunciante" style="shape=umlActor;verticalLabelPosition=bottom;verticalAlign=top;html=1;" vertex="1" parent="1">
          <mxGeometry x="90" y="330" width="30" height="60" as="geometry" />
        </mxCell>
        <mxCell id="EPP53t5IEgMckvDBvmCI-1" value="Fazer Login" style="ellipse;whiteSpace=wrap;html=1;" vertex="1" parent="1">
          <mxGeometry x="240" y="140" width="120" height="80" as="geometry" />
        </mxCell>
        <mxCell id="EPP53t5IEgMckvDBvmCI-2" value="Verrifica senha" style="ellipse;whiteSpace=wrap;html=1;" vertex="1" parent="1">
          <mxGeometry x="540" y="80" width="120" height="80" as="geometry" />
        </mxCell>
        <mxCell id="EPP53t5IEgMckvDBvmCI-3" value="" style="endArrow=open;endSize=12;dashed=1;html=1;rounded=0;exitX=1;exitY=0.5;exitDx=0;exitDy=0;" edge="1" parent="1" source="EPP53t5IEgMckvDBvmCI-1" target="EPP53t5IEgMckvDBvmCI-2">
          <mxGeometry width="160" relative="1" as="geometry">
            <mxPoint x="350" y="310" as="sourcePoint" />
            <mxPoint x="510" y="310" as="targetPoint" />
          </mxGeometry>
        </mxCell>
        <mxCell id="EPP53t5IEgMckvDBvmCI-4" value="Senha Incorreta" style="ellipse;whiteSpace=wrap;html=1;" vertex="1" parent="1">
          <mxGeometry x="530" y="200" width="140" height="70" as="geometry" />
        </mxCell>
        <mxCell id="EPP53t5IEgMckvDBvmCI-5" value="" style="endArrow=open;endSize=12;dashed=1;html=1;rounded=0;entryX=1;entryY=1;entryDx=0;entryDy=0;exitX=0.007;exitY=0.643;exitDx=0;exitDy=0;exitPerimeter=0;" edge="1" parent="1" source="EPP53t5IEgMckvDBvmCI-4" target="EPP53t5IEgMckvDBvmCI-1">
          <mxGeometry x="0.0083" width="160" relative="1" as="geometry">
            <mxPoint x="350" y="310" as="sourcePoint" />
            <mxPoint x="510" y="310" as="targetPoint" />
            <mxPoint as="offset" />
          </mxGeometry>
        </mxCell>
        <mxCell id="EPP53t5IEgMckvDBvmCI-6" value="Publicar produto" style="ellipse;whiteSpace=wrap;html=1;" vertex="1" parent="1">
          <mxGeometry x="240" y="310" width="140" height="70" as="geometry" />
        </mxCell>
        <mxCell id="EPP53t5IEgMckvDBvmCI-9" value="Exibir para os clientes" style="ellipse;whiteSpace=wrap;html=1;" vertex="1" parent="1">
          <mxGeometry x="530" y="310" width="140" height="70" as="geometry" />
        </mxCell>
        <mxCell id="EPP53t5IEgMckvDBvmCI-10" value="" style="endArrow=open;endSize=12;dashed=1;html=1;rounded=0;exitX=1;exitY=0.5;exitDx=0;exitDy=0;entryX=0;entryY=0.5;entryDx=0;entryDy=0;" edge="1" parent="1" source="EPP53t5IEgMckvDBvmCI-6" target="EPP53t5IEgMckvDBvmCI-9">
          <mxGeometry width="160" relative="1" as="geometry">
            <mxPoint x="370" y="190" as="sourcePoint" />
            <mxPoint x="554" y="144" as="targetPoint" />
          </mxGeometry>
        </mxCell>
        <mxCell id="EPP53t5IEgMckvDBvmCI-14" value="Ver meus produtos" style="ellipse;whiteSpace=wrap;html=1;" vertex="1" parent="1">
          <mxGeometry x="240" y="480" width="140" height="70" as="geometry" />
        </mxCell>
        <mxCell id="EPP53t5IEgMckvDBvmCI-15" value="Exibir meus produtos" style="ellipse;whiteSpace=wrap;html=1;" vertex="1" parent="1">
          <mxGeometry x="530" y="480" width="140" height="70" as="geometry" />
        </mxCell>
        <mxCell id="EPP53t5IEgMckvDBvmCI-16" value="" style="endArrow=open;endSize=12;dashed=1;html=1;rounded=0;exitX=1;exitY=0.5;exitDx=0;exitDy=0;entryX=0;entryY=0.5;entryDx=0;entryDy=0;" edge="1" parent="1" source="EPP53t5IEgMckvDBvmCI-14" target="EPP53t5IEgMckvDBvmCI-15">
          <mxGeometry width="160" relative="1" as="geometry">
            <mxPoint x="370" y="360" as="sourcePoint" />
            <mxPoint x="554" y="314" as="targetPoint" />
          </mxGeometry>
        </mxCell>
        <mxCell id="EPP53t5IEgMckvDBvmCI-17" value="Erro ao publicar &lt;br&gt;produto" style="ellipse;whiteSpace=wrap;html=1;" vertex="1" parent="1">
          <mxGeometry x="390" y="400" width="140" height="70" as="geometry" />
        </mxCell>
        <mxCell id="EPP53t5IEgMckvDBvmCI-18" value="" style="endArrow=open;endSize=12;dashed=1;html=1;rounded=0;exitX=0.006;exitY=0.4;exitDx=0;exitDy=0;entryX=0.5;entryY=1;entryDx=0;entryDy=0;exitPerimeter=0;" edge="1" parent="1" source="EPP53t5IEgMckvDBvmCI-17" target="EPP53t5IEgMckvDBvmCI-6">
          <mxGeometry width="160" relative="1" as="geometry">
            <mxPoint x="390" y="355" as="sourcePoint" />
            <mxPoint x="540" y="355" as="targetPoint" />
          </mxGeometry>
        </mxCell>
        <mxCell id="EPP53t5IEgMckvDBvmCI-19" value="Ver meus pedidos" style="ellipse;whiteSpace=wrap;html=1;" vertex="1" parent="1">
          <mxGeometry x="240" y="585" width="140" height="70" as="geometry" />
        </mxCell>
        <mxCell id="EPP53t5IEgMckvDBvmCI-20" value="Exibir meus pedidos" style="ellipse;whiteSpace=wrap;html=1;" vertex="1" parent="1">
          <mxGeometry x="530" y="585" width="140" height="70" as="geometry" />
        </mxCell>
        <mxCell id="EPP53t5IEgMckvDBvmCI-21" value="" style="endArrow=open;endSize=12;dashed=1;html=1;rounded=0;exitX=1;exitY=0.5;exitDx=0;exitDy=0;entryX=0;entryY=0.5;entryDx=0;entryDy=0;" edge="1" parent="1" source="EPP53t5IEgMckvDBvmCI-19" target="EPP53t5IEgMckvDBvmCI-20">
          <mxGeometry width="160" relative="1" as="geometry">
            <mxPoint x="370" y="465" as="sourcePoint" />
            <mxPoint x="554" y="419" as="targetPoint" />
          </mxGeometry>
        </mxCell>
        <mxCell id="EPP53t5IEgMckvDBvmCI-22" value="Ver meus produtos&lt;br&gt;postados" style="ellipse;whiteSpace=wrap;html=1;" vertex="1" parent="1">
          <mxGeometry x="240" y="690" width="140" height="70" as="geometry" />
        </mxCell>
        <mxCell id="EPP53t5IEgMckvDBvmCI-23" value="Exibir meus produtos" style="ellipse;whiteSpace=wrap;html=1;" vertex="1" parent="1">
          <mxGeometry x="530" y="690" width="140" height="70" as="geometry" />
        </mxCell>
        <mxCell id="EPP53t5IEgMckvDBvmCI-24" value="" style="endArrow=open;endSize=12;dashed=1;html=1;rounded=0;exitX=1;exitY=0.5;exitDx=0;exitDy=0;entryX=0;entryY=0.5;entryDx=0;entryDy=0;" edge="1" parent="1" source="EPP53t5IEgMckvDBvmCI-22" target="EPP53t5IEgMckvDBvmCI-23">
          <mxGeometry width="160" relative="1" as="geometry">
            <mxPoint x="370" y="570" as="sourcePoint" />
            <mxPoint x="554" y="524" as="targetPoint" />
          </mxGeometry>
        </mxCell>
        <mxCell id="EPP53t5IEgMckvDBvmCI-25" value="Status da entrega" style="ellipse;whiteSpace=wrap;html=1;" vertex="1" parent="1">
          <mxGeometry x="240" y="800" width="140" height="70" as="geometry" />
        </mxCell>
        <mxCell id="EPP53t5IEgMckvDBvmCI-26" value="" style="endArrow=none;html=1;rounded=0;entryX=0.5;entryY=0;entryDx=0;entryDy=0;exitX=0.5;exitY=1;exitDx=0;exitDy=0;" edge="1" parent="1" source="EPP53t5IEgMckvDBvmCI-22" target="EPP53t5IEgMckvDBvmCI-25">
          <mxGeometry width="50" height="50" relative="1" as="geometry">
            <mxPoint x="320" y="720" as="sourcePoint" />
            <mxPoint x="370" y="670" as="targetPoint" />
          </mxGeometry>
        </mxCell>
        <mxCell id="EPP53t5IEgMckvDBvmCI-27" value="Aceitar pedido" style="ellipse;whiteSpace=wrap;html=1;" vertex="1" parent="1">
          <mxGeometry x="245" y="900" width="140" height="70" as="geometry" />
        </mxCell>
        <mxCell id="EPP53t5IEgMckvDBvmCI-28" value="Gerar prazo&lt;br&gt;para postagem" style="ellipse;whiteSpace=wrap;html=1;" vertex="1" parent="1">
          <mxGeometry x="535" y="900" width="140" height="70" as="geometry" />
        </mxCell>
        <mxCell id="EPP53t5IEgMckvDBvmCI-29" value="" style="endArrow=open;endSize=12;dashed=1;html=1;rounded=0;exitX=1;exitY=0.5;exitDx=0;exitDy=0;entryX=0;entryY=0.5;entryDx=0;entryDy=0;" edge="1" parent="1" source="EPP53t5IEgMckvDBvmCI-27" target="EPP53t5IEgMckvDBvmCI-28">
          <mxGeometry width="160" relative="1" as="geometry">
            <mxPoint x="375" y="780" as="sourcePoint" />
            <mxPoint x="559" y="734" as="targetPoint" />
          </mxGeometry>
        </mxCell>
        <mxCell id="EPP53t5IEgMckvDBvmCI-30" value="Gerar cÃ³digo de postagem" style="ellipse;whiteSpace=wrap;html=1;" vertex="1" parent="1">
          <mxGeometry x="430" y="790" width="140" height="70" as="geometry" />
        </mxCell>
        <mxCell id="EPP53t5IEgMckvDBvmCI-31" value="" style="endArrow=open;endSize=12;dashed=1;html=1;rounded=0;exitX=0.964;exitY=0.571;exitDx=0;exitDy=0;entryX=0.5;entryY=1;entryDx=0;entryDy=0;exitPerimeter=0;" edge="1" parent="1" source="EPP53t5IEgMckvDBvmCI-27" target="EPP53t5IEgMckvDBvmCI-30">
          <mxGeometry width="160" relative="1" as="geometry">
            <mxPoint x="395" y="945" as="sourcePoint" />
            <mxPoint x="545" y="945" as="targetPoint" />
          </mxGeometry>
        </mxCell>
        <mxCell id="EPP53t5IEgMckvDBvmCI-32" value="Cliente" style="shape=umlActor;verticalLabelPosition=bottom;verticalAlign=top;html=1;outlineConnect=0;" vertex="1" parent="1">
          <mxGeometry x="730" y="330" width="30" height="60" as="geometry" />
        </mxCell>
        <mxCell id="EPP53t5IEgMckvDBvmCI-37" value="" style="endArrow=none;html=1;rounded=0;entryX=0.5;entryY=1;entryDx=0;entryDy=0;exitX=0;exitY=0.3333333333333333;exitDx=0;exitDy=0;exitPerimeter=0;" edge="1" parent="1" source="EPP53t5IEgMckvDBvmCI-32" target="EPP53t5IEgMckvDBvmCI-9">
          <mxGeometry width="50" height="50" relative="1" as="geometry">
            <mxPoint x="480" y="390" as="sourcePoint" />
            <mxPoint x="530" y="340" as="targetPoint" />
            <Array as="points">
              <mxPoint x="670" y="380" />
            </Array>
          </mxGeometry>
        </mxCell>
        <mxCell id="EPP53t5IEgMckvDBvmCI-38" value="Notificar cliente" style="ellipse;whiteSpace=wrap;html=1;" vertex="1" parent="1">
          <mxGeometry x="385" y="1010" width="140" height="70" as="geometry" />
        </mxCell>
        <mxCell id="EPP53t5IEgMckvDBvmCI-39" value="" style="endArrow=none;html=1;rounded=0;entryX=1;entryY=0.5;entryDx=0;entryDy=0;exitX=0.5;exitY=0;exitDx=0;exitDy=0;" edge="1" parent="1" source="EPP53t5IEgMckvDBvmCI-38" target="EPP53t5IEgMckvDBvmCI-27">
          <mxGeometry width="50" height="50" relative="1" as="geometry">
            <mxPoint x="280" y="1010" as="sourcePoint" />
            <mxPoint x="330" y="960" as="targetPoint" />
          </mxGeometry>
        </mxCell>
        <mxCell id="EPP53t5IEgMckvDBvmCI-40" value="" style="endArrow=none;html=1;rounded=0;entryX=0;entryY=0.3333333333333333;entryDx=0;entryDy=0;exitX=1;exitY=0.5;exitDx=0;exitDy=0;entryPerimeter=0;" edge="1" parent="1" source="EPP53t5IEgMckvDBvmCI-38" target="EPP53t5IEgMckvDBvmCI-32">
          <mxGeometry width="50" height="50" relative="1" as="geometry">
            <mxPoint x="465" y="1020" as="sourcePoint" />
            <mxPoint x="395" y="945" as="targetPoint" />
            <Array as="points">
              <mxPoint x="680" y="1040" />
              <mxPoint x="680" y="390" />
            </Array>
          </mxGeometry>
        </mxCell>
        <mxCell id="EPP53t5IEgMckvDBvmCI-41" value="Prazo de postagem&lt;br&gt;esgotado" style="ellipse;whiteSpace=wrap;html=1;" vertex="1" parent="1">
          <mxGeometry x="245" y="1130" width="140" height="70" as="geometry" />
        </mxCell>
        <mxCell id="EPP53t5IEgMckvDBvmCI-42" value="" style="endArrow=none;html=1;rounded=0;entryX=0.5;entryY=1;entryDx=0;entryDy=0;exitX=0.5;exitY=0;exitDx=0;exitDy=0;" edge="1" parent="1" source="EPP53t5IEgMckvDBvmCI-41" target="EPP53t5IEgMckvDBvmCI-38">
          <mxGeometry width="50" height="50" relative="1" as="geometry">
            <mxPoint x="280" y="1150" as="sourcePoint" />
            <mxPoint x="330" y="1100" as="targetPoint" />
          </mxGeometry>
        </mxCell>
        <mxCell id="EPP53t5IEgMckvDBvmCI-44" value="Cancelar pedido" style="ellipse;whiteSpace=wrap;html=1;" vertex="1" parent="1">
          <mxGeometry x="490" y="1130" width="140" height="70" as="geometry" />
        </mxCell>
        <mxCell id="EPP53t5IEgMckvDBvmCI-45" value="Notificar anunciante" style="ellipse;whiteSpace=wrap;html=1;" vertex="1" parent="1">
          <mxGeometry x="250" y="1250" width="140" height="70" as="geometry" />
        </mxCell>
        <mxCell id="EPP53t5IEgMckvDBvmCI-46" value="" style="endArrow=open;endSize=12;dashed=1;html=1;rounded=0;exitX=1;exitY=0.5;exitDx=0;exitDy=0;entryX=0;entryY=0.5;entryDx=0;entryDy=0;" edge="1" parent="1" source="EPP53t5IEgMckvDBvmCI-41" target="EPP53t5IEgMckvDBvmCI-44">
          <mxGeometry width="160" relative="1" as="geometry">
            <mxPoint x="395" y="945" as="sourcePoint" />
            <mxPoint x="545" y="945" as="targetPoint" />
          </mxGeometry>
        </mxCell>
        <mxCell id="EPP53t5IEgMckvDBvmCI-47" value="" style="endArrow=none;html=1;rounded=0;exitX=0.5;exitY=0;exitDx=0;exitDy=0;" edge="1" parent="1" source="EPP53t5IEgMckvDBvmCI-48">
          <mxGeometry width="50" height="50" relative="1" as="geometry">
            <mxPoint x="280" y="1150" as="sourcePoint" />
            <mxPoint x="320" y="1320" as="targetPoint" />
          </mxGeometry>
        </mxCell>
        <mxCell id="EPP53t5IEgMckvDBvmCI-48" value="Pedido a caminho" style="ellipse;whiteSpace=wrap;html=1;" vertex="1" parent="1">
          <mxGeometry x="250" y="1380" width="140" height="70" as="geometry" />
        </mxCell>
        <mxCell id="EPP53t5IEgMckvDBvmCI-50" value="Repassar valor da venda" style="ellipse;whiteSpace=wrap;html=1;" vertex="1" parent="1">
          <mxGeometry x="490" y="1380" width="140" height="70" as="geometry" />
        </mxCell>
        <mxCell id="EPP53t5IEgMckvDBvmCI-51" value="" style="endArrow=open;endSize=12;dashed=1;html=1;rounded=0;exitX=1;exitY=0.5;exitDx=0;exitDy=0;entryX=0;entryY=0.5;entryDx=0;entryDy=0;" edge="1" parent="1" source="EPP53t5IEgMckvDBvmCI-48" target="EPP53t5IEgMckvDBvmCI-50">
          <mxGeometry width="160" relative="1" as="geometry">
            <mxPoint x="395" y="1175" as="sourcePoint" />
            <mxPoint x="500" y="1175" as="targetPoint" />
          </mxGeometry>
        </mxCell>
        <mxCell id="EPP53t5IEgMckvDBvmCI-52" value="" style="endArrow=none;html=1;rounded=0;entryX=0.536;entryY=1;entryDx=0;entryDy=0;exitX=0.5;exitY=0;exitDx=0;exitDy=0;entryPerimeter=0;" edge="1" parent="1" source="EPP53t5IEgMckvDBvmCI-45" target="EPP53t5IEgMckvDBvmCI-41">
          <mxGeometry width="50" height="50" relative="1" as="geometry">
            <mxPoint x="320" y="1250" as="sourcePoint" />
            <mxPoint x="330" y="1330" as="targetPoint" />
          </mxGeometry>
        </mxCell>
        <mxCell id="EPP53t5IEgMckvDBvmCI-53" value="Salvar no histÃ³rico&lt;br&gt;de vendas" style="ellipse;whiteSpace=wrap;html=1;" vertex="1" parent="1">
          <mxGeometry x="490" y="1260" width="140" height="70" as="geometry" />
        </mxCell>
        <mxCell id="EPP53t5IEgMckvDBvmCI-54" value="" style="endArrow=open;endSize=12;dashed=1;html=1;rounded=0;exitX=1;exitY=0.5;exitDx=0;exitDy=0;entryX=0;entryY=0.5;entryDx=0;entryDy=0;" edge="1" parent="1" source="EPP53t5IEgMckvDBvmCI-48" target="EPP53t5IEgMckvDBvmCI-53">
          <mxGeometry width="160" relative="1" as="geometry">
            <mxPoint x="400" y="1425" as="sourcePoint" />
            <mxPoint x="500" y="1425" as="targetPoint" />
          </mxGeometry>
        </mxCell>
        <mxCell id="EPP53t5IEgMckvDBvmCI-55" value="Cancelar compra" style="ellipse;whiteSpace=wrap;html=1;" vertex="1" parent="1">
          <mxGeometry x="490" y="1500" width="140" height="70" as="geometry" />
        </mxCell>
        <mxCell id="EPP53t5IEgMckvDBvmCI-56" value="" style="endArrow=none;html=1;rounded=0;entryX=-0.018;entryY=0.6;entryDx=0;entryDy=0;entryPerimeter=0;exitX=1;exitY=0.3333333333333333;exitDx=0;exitDy=0;exitPerimeter=0;" edge="1" parent="1" source="XYX-xVBKLh2NWxnLYjrE-1" target="EPP53t5IEgMckvDBvmCI-1">
          <mxGeometry width="50" height="50" relative="1" as="geometry">
            <mxPoint x="230" y="440" as="sourcePoint" />
            <mxPoint x="280" y="390" as="targetPoint" />
          </mxGeometry>
        </mxCell>
        <mxCell id="EPP53t5IEgMckvDBvmCI-57" value="" style="endArrow=none;html=1;rounded=0;exitX=1;exitY=0.3333333333333333;exitDx=0;exitDy=0;exitPerimeter=0;entryX=0;entryY=0.5;entryDx=0;entryDy=0;" edge="1" parent="1" source="XYX-xVBKLh2NWxnLYjrE-1" target="EPP53t5IEgMckvDBvmCI-6">
          <mxGeometry width="50" height="50" relative="1" as="geometry">
            <mxPoint x="230" y="440" as="sourcePoint" />
            <mxPoint x="280" y="390" as="targetPoint" />
          </mxGeometry>
        </mxCell>
        <mxCell id="EPP53t5IEgMckvDBvmCI-58" value="" style="endArrow=none;html=1;rounded=0;exitX=1;exitY=0.3333333333333333;exitDx=0;exitDy=0;exitPerimeter=0;entryX=0.002;entryY=0.333;entryDx=0;entryDy=0;entryPerimeter=0;" edge="1" parent="1" source="XYX-xVBKLh2NWxnLYjrE-1" target="EPP53t5IEgMckvDBvmCI-14">
          <mxGeometry width="50" height="50" relative="1" as="geometry">
            <mxPoint x="230" y="440" as="sourcePoint" />
            <mxPoint x="280" y="390" as="targetPoint" />
          </mxGeometry>
        </mxCell>
        <mxCell id="EPP53t5IEgMckvDBvmCI-59" value="" style="endArrow=none;html=1;rounded=0;entryX=0;entryY=0.5;entryDx=0;entryDy=0;" edge="1" parent="1" target="EPP53t5IEgMckvDBvmCI-19">
          <mxGeometry width="50" height="50" relative="1" as="geometry">
            <mxPoint x="120" y="350" as="sourcePoint" />
            <mxPoint x="280" y="390" as="targetPoint" />
          </mxGeometry>
        </mxCell>
        <mxCell id="EPP53t5IEgMckvDBvmCI-60" value="" style="endArrow=none;html=1;rounded=0;exitX=1;exitY=0.3333333333333333;exitDx=0;exitDy=0;exitPerimeter=0;entryX=0;entryY=0.5;entryDx=0;entryDy=0;" edge="1" parent="1" source="XYX-xVBKLh2NWxnLYjrE-1" target="EPP53t5IEgMckvDBvmCI-22">
          <mxGeometry width="50" height="50" relative="1" as="geometry">
            <mxPoint x="230" y="580" as="sourcePoint" />
            <mxPoint x="280" y="530" as="targetPoint" />
          </mxGeometry>
        </mxCell>
        <mxCell id="EPP53t5IEgMckvDBvmCI-61" value="" style="endArrow=none;html=1;rounded=0;entryX=1;entryY=0.3333333333333333;entryDx=0;entryDy=0;entryPerimeter=0;exitX=0;exitY=0.5;exitDx=0;exitDy=0;" edge="1" parent="1" source="EPP53t5IEgMckvDBvmCI-27" target="XYX-xVBKLh2NWxnLYjrE-1">
          <mxGeometry width="50" height="50" relative="1" as="geometry">
            <mxPoint x="230" y="580" as="sourcePoint" />
            <mxPoint x="280" y="530" as="targetPoint" />
          </mxGeometry>
        </mxCell>
        <mxCell id="EPP53t5IEgMckvDBvmCI-63" value="" style="endArrow=open;endSize=12;dashed=1;html=1;rounded=0;exitX=0;exitY=0.5;exitDx=0;exitDy=0;entryX=0;entryY=0.3333333333333333;entryDx=0;entryDy=0;entryPerimeter=0;" edge="1" parent="1" source="EPP53t5IEgMckvDBvmCI-45" target="XYX-xVBKLh2NWxnLYjrE-1">
          <mxGeometry width="160" relative="1" as="geometry">
            <mxPoint x="395" y="1175" as="sourcePoint" />
            <mxPoint x="500" y="1175" as="targetPoint" />
          </mxGeometry>
        </mxCell>
        <mxCell id="EPP53t5IEgMckvDBvmCI-64" value="" style="endArrow=none;html=1;rounded=0;entryX=1;entryY=0.5;entryDx=0;entryDy=0;exitX=0;exitY=0.5;exitDx=0;exitDy=0;" edge="1" parent="1" source="EPP53t5IEgMckvDBvmCI-55" target="EPP53t5IEgMckvDBvmCI-45">
          <mxGeometry width="50" height="50" relative="1" as="geometry">
            <mxPoint x="230" y="1530" as="sourcePoint" />
            <mxPoint x="280" y="1480" as="targetPoint" />
            <Array as="points">
              <mxPoint x="420" y="1535" />
              <mxPoint x="420" y="1285" />
            </Array>
          </mxGeometry>
        </mxCell>
        <mxCell id="EPP53t5IEgMckvDBvmCI-65" value="" style="endArrow=none;html=1;rounded=0;entryX=1;entryY=0.5;entryDx=0;entryDy=0;exitX=0;exitY=0.3333333333333333;exitDx=0;exitDy=0;exitPerimeter=0;" edge="1" parent="1" source="EPP53t5IEgMckvDBvmCI-32" target="EPP53t5IEgMckvDBvmCI-55">
          <mxGeometry width="50" height="50" relative="1" as="geometry">
            <mxPoint x="230" y="1530" as="sourcePoint" />
            <mxPoint x="280" y="1480" as="targetPoint" />
            <Array as="points">
              <mxPoint x="690" y="410" />
              <mxPoint x="690" y="1535" />
            </Array>
          </mxGeometry>
        </mxCell>
        <mxCell id="EPP53t5IEgMckvDBvmCI-66" value="Verificar status do&amp;nbsp;&lt;br&gt;pedido" style="ellipse;whiteSpace=wrap;html=1;" vertex="1" parent="1">
          <mxGeometry x="245" y="1620" width="140" height="70" as="geometry" />
        </mxCell>
        <mxCell id="EPP53t5IEgMckvDBvmCI-67" value="NÃ£o pode ser&lt;br&gt;cancelado" style="ellipse;whiteSpace=wrap;html=1;" vertex="1" parent="1">
          <mxGeometry x="490" y="1620" width="140" height="70" as="geometry" />
        </mxCell>
        <mxCell id="EPP53t5IEgMckvDBvmCI-68" value="" style="endArrow=open;endSize=12;dashed=1;html=1;rounded=0;exitX=0.5;exitY=0;exitDx=0;exitDy=0;entryX=0.5;entryY=1;entryDx=0;entryDy=0;" edge="1" parent="1" source="EPP53t5IEgMckvDBvmCI-67" target="EPP53t5IEgMckvDBvmCI-55">
          <mxGeometry width="160" relative="1" as="geometry">
            <mxPoint x="400" y="1425" as="sourcePoint" />
            <mxPoint x="500" y="1425" as="targetPoint" />
          </mxGeometry>
        </mxCell>
        <mxCell id="EPP53t5IEgMckvDBvmCI-69" value="" style="endArrow=none;html=1;rounded=0;exitX=1;exitY=0.5;exitDx=0;exitDy=0;" edge="1" parent="1" source="EPP53t5IEgMckvDBvmCI-66">
          <mxGeometry width="50" height="50" relative="1" as="geometry">
            <mxPoint x="230" y="1530" as="sourcePoint" />
            <mxPoint x="570" y="1570" as="targetPoint" />
          </mxGeometry>
        </mxCell>
        <mxCell id="EMOvkPdYCyuNzPnH6LvO-1" value="Pedir reembolso" style="ellipse;whiteSpace=wrap;html=1;" vertex="1" parent="1">
          <mxGeometry x="490" y="1719" width="140" height="70" as="geometry" />
        </mxCell>
        <mxCell id="EMOvkPdYCyuNzPnH6LvO-2" value="Aceitar reembolso" style="ellipse;whiteSpace=wrap;html=1;" vertex="1" parent="1">
          <mxGeometry x="245" y="1850" width="140" height="70" as="geometry" />
        </mxCell>
        <mxCell id="EMOvkPdYCyuNzPnH6LvO-3" value="Proposta" style="ellipse;whiteSpace=wrap;html=1;" vertex="1" parent="1">
          <mxGeometry x="490" y="1850" width="140" height="70" as="geometry" />
        </mxCell>
        <mxCell id="EMOvkPdYCyuNzPnH6LvO-4" value="Auxilio do suporte" style="ellipse;whiteSpace=wrap;html=1;" vertex="1" parent="1">
          <mxGeometry x="245" y="1719" width="140" height="70" as="geometry" />
        </mxCell>
        <mxCell id="EMOvkPdYCyuNzPnH6LvO-5" value="" style="endArrow=open;endSize=12;dashed=1;html=1;rounded=0;exitX=0;exitY=0.5;exitDx=0;exitDy=0;entryX=1;entryY=0.5;entryDx=0;entryDy=0;" edge="1" parent="1" source="EMOvkPdYCyuNzPnH6LvO-1" target="EMOvkPdYCyuNzPnH6LvO-4">
          <mxGeometry width="160" relative="1" as="geometry">
            <mxPoint x="570" y="1630" as="sourcePoint" />
            <mxPoint x="570" y="1580" as="targetPoint" />
          </mxGeometry>
        </mxCell>
        <mxCell id="EMOvkPdYCyuNzPnH6LvO-6" value="" style="endArrow=open;endSize=12;dashed=1;html=1;rounded=0;entryX=0.5;entryY=1;entryDx=0;entryDy=0;exitX=0.5;exitY=0;exitDx=0;exitDy=0;" edge="1" parent="1" source="EMOvkPdYCyuNzPnH6LvO-3" target="EMOvkPdYCyuNzPnH6LvO-1">
          <mxGeometry width="160" relative="1" as="geometry">
            <mxPoint x="500" y="1764" as="sourcePoint" />
            <mxPoint x="395" y="1764" as="targetPoint" />
          </mxGeometry>
        </mxCell>
        <mxCell id="EMOvkPdYCyuNzPnH6LvO-7" value="Modifica histÃ³rico de&amp;nbsp;&lt;br&gt;vendas" style="ellipse;whiteSpace=wrap;html=1;" vertex="1" parent="1">
          <mxGeometry x="370" y="1950" width="140" height="70" as="geometry" />
        </mxCell>
        <mxCell id="EMOvkPdYCyuNzPnH6LvO-8" value="" style="endArrow=open;endSize=12;dashed=1;html=1;rounded=0;exitX=0.5;exitY=0;exitDx=0;exitDy=0;entryX=0.5;entryY=1;entryDx=0;entryDy=0;" edge="1" parent="1" source="EMOvkPdYCyuNzPnH6LvO-2" target="EMOvkPdYCyuNzPnH6LvO-4">
          <mxGeometry width="160" relative="1" as="geometry">
            <mxPoint x="500" y="1764" as="sourcePoint" />
            <mxPoint x="395" y="1764" as="targetPoint" />
          </mxGeometry>
        </mxCell>
        <mxCell id="EMOvkPdYCyuNzPnH6LvO-10" value="" style="endArrow=open;endSize=12;dashed=1;html=1;rounded=0;exitX=0.5;exitY=1;exitDx=0;exitDy=0;entryX=0.5;entryY=0;entryDx=0;entryDy=0;" edge="1" parent="1" source="EMOvkPdYCyuNzPnH6LvO-2" target="EMOvkPdYCyuNzPnH6LvO-7">
          <mxGeometry width="160" relative="1" as="geometry">
            <mxPoint x="325" y="1860" as="sourcePoint" />
            <mxPoint x="325" y="1799" as="targetPoint" />
          </mxGeometry>
        </mxCell>
        <mxCell id="EMOvkPdYCyuNzPnH6LvO-11" value="" style="endArrow=open;endSize=12;dashed=1;html=1;rounded=0;exitX=0;exitY=0.5;exitDx=0;exitDy=0;" edge="1" parent="1" source="EMOvkPdYCyuNzPnH6LvO-2">
          <mxGeometry width="160" relative="1" as="geometry">
            <mxPoint x="325" y="1860" as="sourcePoint" />
            <mxPoint x="250" y="1280" as="targetPoint" />
            <Array as="points">
              <mxPoint x="230" y="1885" />
              <mxPoint x="230" y="1280" />
            </Array>
          </mxGeometry>
        </mxCell>
        <mxCell id="EMOvkPdYCyuNzPnH6LvO-12" value="" style="endArrow=none;html=1;rounded=0;entryX=1;entryY=0.3333333333333333;entryDx=0;entryDy=0;entryPerimeter=0;exitX=0;exitY=0.5;exitDx=0;exitDy=0;" edge="1" parent="1" source="EMOvkPdYCyuNzPnH6LvO-2" target="XYX-xVBKLh2NWxnLYjrE-1">
          <mxGeometry width="50" height="50" relative="1" as="geometry">
            <mxPoint x="255" y="945" as="sourcePoint" />
            <mxPoint x="130" y="360" as="targetPoint" />
            <Array as="points">
              <mxPoint x="200" y="1885" />
            </Array>
          </mxGeometry>
        </mxCell>
        <mxCell id="EMOvkPdYCyuNzPnH6LvO-13" value="" style="endArrow=open;endSize=12;dashed=1;html=1;rounded=0;exitX=0;exitY=0.5;exitDx=0;exitDy=0;entryX=0.5;entryY=1;entryDx=0;entryDy=0;" edge="1" parent="1" source="EMOvkPdYCyuNzPnH6LvO-1" target="EPP53t5IEgMckvDBvmCI-38">
          <mxGeometry width="160" relative="1" as="geometry">
            <mxPoint x="325" y="1860" as="sourcePoint" />
            <mxPoint x="325" y="1799" as="targetPoint" />
            <Array as="points">
              <mxPoint x="450" y="1754" />
            </Array>
          </mxGeometry>
        </mxCell>
        <mxCell id="EMOvkPdYCyuNzPnH6LvO-14" value="" style="endArrow=none;html=1;rounded=0;entryX=1;entryY=0.5;entryDx=0;entryDy=0;exitX=0;exitY=0.3333333333333333;exitDx=0;exitDy=0;exitPerimeter=0;" edge="1" parent="1" source="EPP53t5IEgMckvDBvmCI-32" target="EMOvkPdYCyuNzPnH6LvO-1">
          <mxGeometry width="50" height="50" relative="1" as="geometry">
            <mxPoint x="740" y="360" as="sourcePoint" />
            <mxPoint x="640" y="1545" as="targetPoint" />
            <Array as="points">
              <mxPoint x="690" y="410" />
              <mxPoint x="690" y="1580" />
              <mxPoint x="690" y="1754" />
            </Array>
          </mxGeometry>
        </mxCell>
        <mxCell id="EMOvkPdYCyuNzPnH6LvO-15" value="Minhas vendas" style="ellipse;whiteSpace=wrap;html=1;" vertex="1" parent="1">
          <mxGeometry x="250" y="2120" width="140" height="70" as="geometry" />
        </mxCell>
        <mxCell id="EMOvkPdYCyuNzPnH6LvO-16" value="Exibir vendas" style="ellipse;whiteSpace=wrap;html=1;" vertex="1" parent="1">
          <mxGeometry x="500" y="2030" width="140" height="70" as="geometry" />
        </mxCell>
        <mxCell id="EMOvkPdYCyuNzPnH6LvO-17" value="Calcular vendas" style="ellipse;whiteSpace=wrap;html=1;" vertex="1" parent="1">
          <mxGeometry x="500" y="2140" width="140" height="70" as="geometry" />
        </mxCell>
        <mxCell id="EMOvkPdYCyuNzPnH6LvO-18" value="Filtros por periodo" style="ellipse;whiteSpace=wrap;html=1;" vertex="1" parent="1">
          <mxGeometry x="250" y="2260" width="140" height="70" as="geometry" />
        </mxCell>
        <mxCell id="EMOvkPdYCyuNzPnH6LvO-19" value="Exibir por filtro" style="ellipse;whiteSpace=wrap;html=1;" vertex="1" parent="1">
          <mxGeometry x="500" y="2260" width="140" height="70" as="geometry" />
        </mxCell>
        <mxCell id="EMOvkPdYCyuNzPnH6LvO-20" value="" style="endArrow=open;endSize=12;dashed=1;html=1;rounded=0;exitX=1;exitY=0.5;exitDx=0;exitDy=0;entryX=0;entryY=0.5;entryDx=0;entryDy=0;" edge="1" parent="1" source="EMOvkPdYCyuNzPnH6LvO-15" target="EMOvkPdYCyuNzPnH6LvO-16">
          <mxGeometry width="160" relative="1" as="geometry">
            <mxPoint x="325" y="1930" as="sourcePoint" />
            <mxPoint x="450" y="1960" as="targetPoint" />
          </mxGeometry>
        </mxCell>
        <mxCell id="EMOvkPdYCyuNzPnH6LvO-21" value="" style="endArrow=open;endSize=12;dashed=1;html=1;rounded=0;exitX=1;exitY=0.5;exitDx=0;exitDy=0;entryX=0;entryY=0.5;entryDx=0;entryDy=0;" edge="1" parent="1" source="EMOvkPdYCyuNzPnH6LvO-15" target="EMOvkPdYCyuNzPnH6LvO-17">
          <mxGeometry width="160" relative="1" as="geometry">
            <mxPoint x="400" y="2165" as="sourcePoint" />
            <mxPoint x="510" y="2075" as="targetPoint" />
          </mxGeometry>
        </mxCell>
        <mxCell id="EMOvkPdYCyuNzPnH6LvO-22" value="" style="endArrow=open;endSize=12;dashed=1;html=1;rounded=0;exitX=0.5;exitY=1;exitDx=0;exitDy=0;entryX=0.5;entryY=0;entryDx=0;entryDy=0;" edge="1" parent="1" source="EMOvkPdYCyuNzPnH6LvO-15" target="EMOvkPdYCyuNzPnH6LvO-18">
          <mxGeometry width="160" relative="1" as="geometry">
            <mxPoint x="410" y="2175" as="sourcePoint" />
            <mxPoint x="520" y="2085" as="targetPoint" />
          </mxGeometry>
        </mxCell>
        <mxCell id="EMOvkPdYCyuNzPnH6LvO-23" value="" style="endArrow=open;endSize=12;dashed=1;html=1;rounded=0;exitX=1;exitY=0.5;exitDx=0;exitDy=0;entryX=0;entryY=0.5;entryDx=0;entryDy=0;" edge="1" parent="1" source="EMOvkPdYCyuNzPnH6LvO-18" target="EMOvkPdYCyuNzPnH6LvO-19">
          <mxGeometry width="160" relative="1" as="geometry">
            <mxPoint x="330" y="2200" as="sourcePoint" />
            <mxPoint x="330" y="2270" as="targetPoint" />
          </mxGeometry>
        </mxCell>
        <mxCell id="EMOvkPdYCyuNzPnH6LvO-25" value="" style="endArrow=none;html=1;rounded=0;exitX=1;exitY=0.3333333333333333;exitDx=0;exitDy=0;exitPerimeter=0;entryX=0;entryY=0.5;entryDx=0;entryDy=0;" edge="1" parent="1" source="XYX-xVBKLh2NWxnLYjrE-1" target="EMOvkPdYCyuNzPnH6LvO-15">
          <mxGeometry width="50" height="50" relative="1" as="geometry">
            <mxPoint x="310" y="1810" as="sourcePoint" />
            <mxPoint x="360" y="1760" as="targetPoint" />
            <Array as="points">
              <mxPoint x="120" y="2155" />
            </Array>
          </mxGeometry>
        </mxCell>
      </root>
    </mxGraphModel>
  </diagram>
  <diagram id="ZYV5mc_LDdqkohP1ouHs" name="Diagrama de classes">
    <mxGraphModel dx="603" dy="335" grid="1" gridSize="10" guides="1" tooltips="1" connect="1" arrows="1" fold="1" page="1" pageScale="1" pageWidth="827" pageHeight="1169" math="0" shadow="0">
      <root>
        <mxCell id="0" />
        <mxCell id="1" parent="0" />
        <mxCell id="OOepyNLVdoa-JjVEculD-2" value="User" style="swimlane;fontStyle=0;childLayout=stackLayout;horizontal=1;startSize=26;fillColor=none;horizontalStack=0;resizeParent=1;resizeParentMax=0;resizeLast=0;collapsible=1;marginBottom=0;whiteSpace=wrap;html=1;" vertex="1" parent="1">
          <mxGeometry x="342" y="400" width="140" height="104" as="geometry" />
        </mxCell>
        <mxCell id="OOepyNLVdoa-JjVEculD-3" value="+ user_id: int" style="text;strokeColor=none;fillColor=none;align=left;verticalAlign=top;spacingLeft=4;spacingRight=4;overflow=hidden;rotatable=0;points=[[0,0.5],[1,0.5]];portConstraint=eastwest;whiteSpace=wrap;html=1;" vertex="1" parent="OOepyNLVdoa-JjVEculD-2">
          <mxGeometry y="26" width="140" height="26" as="geometry" />
        </mxCell>
        <mxCell id="OOepyNLVdoa-JjVEculD-4" value="+ user_name: string" style="text;strokeColor=none;fillColor=none;align=left;verticalAlign=top;spacingLeft=4;spacingRight=4;overflow=hidden;rotatable=0;points=[[0,0.5],[1,0.5]];portConstraint=eastwest;whiteSpace=wrap;html=1;" vertex="1" parent="OOepyNLVdoa-JjVEculD-2">
          <mxGeometry y="52" width="140" height="26" as="geometry" />
        </mxCell>
        <mxCell id="OOepyNLVdoa-JjVEculD-5" value="+ password" style="text;strokeColor=none;fillColor=none;align=left;verticalAlign=top;spacingLeft=4;spacingRight=4;overflow=hidden;rotatable=0;points=[[0,0.5],[1,0.5]];portConstraint=eastwest;whiteSpace=wrap;html=1;" vertex="1" parent="OOepyNLVdoa-JjVEculD-2">
          <mxGeometry y="78" width="140" height="26" as="geometry" />
        </mxCell>
        <mxCell id="OOepyNLVdoa-JjVEculD-6" value="Seller" style="swimlane;fontStyle=0;childLayout=stackLayout;horizontal=1;startSize=26;fillColor=none;horizontalStack=0;resizeParent=1;resizeParentMax=0;resizeLast=0;collapsible=1;marginBottom=0;whiteSpace=wrap;html=1;" vertex="1" parent="1">
          <mxGeometry x="108" y="400" width="140" height="52" as="geometry" />
        </mxCell>
        <mxCell id="OOepyNLVdoa-JjVEculD-7" value="+ seller_id: int" style="text;strokeColor=none;fillColor=none;align=left;verticalAlign=top;spacingLeft=4;spacingRight=4;overflow=hidden;rotatable=0;points=[[0,0.5],[1,0.5]];portConstraint=eastwest;whiteSpace=wrap;html=1;" vertex="1" parent="OOepyNLVdoa-JjVEculD-6">
          <mxGeometry y="26" width="140" height="26" as="geometry" />
        </mxCell>
        <mxCell id="OOepyNLVdoa-JjVEculD-10" value="Customer" style="swimlane;fontStyle=0;childLayout=stackLayout;horizontal=1;startSize=26;fillColor=none;horizontalStack=0;resizeParent=1;resizeParentMax=0;resizeLast=0;collapsible=1;marginBottom=0;whiteSpace=wrap;html=1;" vertex="1" parent="1">
          <mxGeometry x="578" y="400" width="140" height="100" as="geometry" />
        </mxCell>
        <mxCell id="OOepyNLVdoa-JjVEculD-11" value="+ customer_id: int" style="text;strokeColor=none;fillColor=none;align=left;verticalAlign=top;spacingLeft=4;spacingRight=4;overflow=hidden;rotatable=0;points=[[0,0.5],[1,0.5]];portConstraint=eastwest;whiteSpace=wrap;html=1;" vertex="1" parent="OOepyNLVdoa-JjVEculD-10">
          <mxGeometry y="26" width="140" height="22" as="geometry" />
        </mxCell>
        <mxCell id="OOepyNLVdoa-JjVEculD-12" value="+ field: type" style="text;strokeColor=none;fillColor=none;align=left;verticalAlign=top;spacingLeft=4;spacingRight=4;overflow=hidden;rotatable=0;points=[[0,0.5],[1,0.5]];portConstraint=eastwest;whiteSpace=wrap;html=1;" vertex="1" parent="OOepyNLVdoa-JjVEculD-10">
          <mxGeometry y="48" width="140" height="26" as="geometry" />
        </mxCell>
        <mxCell id="OOepyNLVdoa-JjVEculD-13" value="+ field: type" style="text;strokeColor=none;fillColor=none;align=left;verticalAlign=top;spacingLeft=4;spacingRight=4;overflow=hidden;rotatable=0;points=[[0,0.5],[1,0.5]];portConstraint=eastwest;whiteSpace=wrap;html=1;" vertex="1" parent="OOepyNLVdoa-JjVEculD-10">
          <mxGeometry y="74" width="140" height="26" as="geometry" />
        </mxCell>
        <mxCell id="OOepyNLVdoa-JjVEculD-16" value="Extends" style="endArrow=block;endSize=16;endFill=0;html=1;rounded=0;exitX=-0.007;exitY=0.154;exitDx=0;exitDy=0;exitPerimeter=0;entryX=1;entryY=0.25;entryDx=0;entryDy=0;" edge="1" parent="1" source="OOepyNLVdoa-JjVEculD-2" target="OOepyNLVdoa-JjVEculD-6">
          <mxGeometry width="160" relative="1" as="geometry">
            <mxPoint x="328" y="520" as="sourcePoint" />
            <mxPoint x="488" y="520" as="targetPoint" />
          </mxGeometry>
        </mxCell>
        <mxCell id="OOepyNLVdoa-JjVEculD-17" value="Extends" style="endArrow=block;endSize=16;endFill=0;html=1;rounded=0;entryX=0;entryY=0.11;entryDx=0;entryDy=0;entryPerimeter=0;exitX=1.021;exitY=0.115;exitDx=0;exitDy=0;exitPerimeter=0;" edge="1" parent="1" source="OOepyNLVdoa-JjVEculD-2" target="OOepyNLVdoa-JjVEculD-10">
          <mxGeometry width="160" relative="1" as="geometry">
            <mxPoint x="328" y="520" as="sourcePoint" />
            <mxPoint x="488" y="520" as="targetPoint" />
          </mxGeometry>
        </mxCell>
        <mxCell id="OOepyNLVdoa-JjVEculD-18" value="ShoppingCart" style="swimlane;fontStyle=0;childLayout=stackLayout;horizontal=1;startSize=26;fillColor=none;horizontalStack=0;resizeParent=1;resizeParentMax=0;resizeLast=0;collapsible=1;marginBottom=0;whiteSpace=wrap;html=1;" vertex="1" parent="1">
          <mxGeometry x="578" y="190" width="140" height="104" as="geometry" />
        </mxCell>
        <mxCell id="OOepyNLVdoa-JjVEculD-19" value="+ shoppingCart_id: int" style="text;strokeColor=none;fillColor=none;align=left;verticalAlign=top;spacingLeft=4;spacingRight=4;overflow=hidden;rotatable=0;points=[[0,0.5],[1,0.5]];portConstraint=eastwest;whiteSpace=wrap;html=1;" vertex="1" parent="OOepyNLVdoa-JjVEculD-18">
          <mxGeometry y="26" width="140" height="26" as="geometry" />
        </mxCell>
        <mxCell id="OOepyNLVdoa-JjVEculD-20" value="+ total: float" style="text;strokeColor=none;fillColor=none;align=left;verticalAlign=top;spacingLeft=4;spacingRight=4;overflow=hidden;rotatable=0;points=[[0,0.5],[1,0.5]];portConstraint=eastwest;whiteSpace=wrap;html=1;" vertex="1" parent="OOepyNLVdoa-JjVEculD-18">
          <mxGeometry y="52" width="140" height="26" as="geometry" />
        </mxCell>
        <mxCell id="OOepyNLVdoa-JjVEculD-21" value="+ field: type" style="text;strokeColor=none;fillColor=none;align=left;verticalAlign=top;spacingLeft=4;spacingRight=4;overflow=hidden;rotatable=0;points=[[0,0.5],[1,0.5]];portConstraint=eastwest;whiteSpace=wrap;html=1;" vertex="1" parent="OOepyNLVdoa-JjVEculD-18">
          <mxGeometry y="78" width="140" height="26" as="geometry" />
        </mxCell>
        <mxCell id="OOepyNLVdoa-JjVEculD-23" value="" style="endArrow=diamondThin;endFill=1;endSize=24;html=1;rounded=0;entryX=0.488;entryY=0;entryDx=0;entryDy=0;exitX=0.488;exitY=1.038;exitDx=0;exitDy=0;exitPerimeter=0;entryPerimeter=0;" edge="1" parent="1" source="OOepyNLVdoa-JjVEculD-21" target="OOepyNLVdoa-JjVEculD-10">
          <mxGeometry width="160" relative="1" as="geometry">
            <mxPoint x="409" y="320" as="sourcePoint" />
            <mxPoint x="569" y="320" as="targetPoint" />
          </mxGeometry>
        </mxCell>
        <mxCell id="OOepyNLVdoa-JjVEculD-24" value="Product" style="swimlane;fontStyle=0;childLayout=stackLayout;horizontal=1;startSize=26;fillColor=none;horizontalStack=0;resizeParent=1;resizeParentMax=0;resizeLast=0;collapsible=1;marginBottom=0;whiteSpace=wrap;html=1;" vertex="1" parent="1">
          <mxGeometry x="349" y="190" width="140" height="182" as="geometry" />
        </mxCell>
        <mxCell id="OOepyNLVdoa-JjVEculD-25" value="+ product_id: int" style="text;strokeColor=none;fillColor=none;align=left;verticalAlign=top;spacingLeft=4;spacingRight=4;overflow=hidden;rotatable=0;points=[[0,0.5],[1,0.5]];portConstraint=eastwest;whiteSpace=wrap;html=1;" vertex="1" parent="OOepyNLVdoa-JjVEculD-24">
          <mxGeometry y="26" width="140" height="26" as="geometry" />
        </mxCell>
        <mxCell id="OOepyNLVdoa-JjVEculD-26" value="+ product_name: string" style="text;strokeColor=none;fillColor=none;align=left;verticalAlign=top;spacingLeft=4;spacingRight=4;overflow=hidden;rotatable=0;points=[[0,0.5],[1,0.5]];portConstraint=eastwest;whiteSpace=wrap;html=1;" vertex="1" parent="OOepyNLVdoa-JjVEculD-24">
          <mxGeometry y="52" width="140" height="26" as="geometry" />
        </mxCell>
        <mxCell id="OOepyNLVdoa-JjVEculD-27" value="+ category: string" style="text;strokeColor=none;fillColor=none;align=left;verticalAlign=top;spacingLeft=4;spacingRight=4;overflow=hidden;rotatable=0;points=[[0,0.5],[1,0.5]];portConstraint=eastwest;whiteSpace=wrap;html=1;" vertex="1" parent="OOepyNLVdoa-JjVEculD-24">
          <mxGeometry y="78" width="140" height="26" as="geometry" />
        </mxCell>
        <mxCell id="OOepyNLVdoa-JjVEculD-29" value="+ description: string" style="text;strokeColor=none;fillColor=none;align=left;verticalAlign=top;spacingLeft=4;spacingRight=4;overflow=hidden;rotatable=0;points=[[0,0.5],[1,0.5]];portConstraint=eastwest;whiteSpace=wrap;html=1;" vertex="1" parent="OOepyNLVdoa-JjVEculD-24">
          <mxGeometry y="104" width="140" height="26" as="geometry" />
        </mxCell>
        <mxCell id="OOepyNLVdoa-JjVEculD-30" value="+ price: float" style="text;strokeColor=none;fillColor=none;align=left;verticalAlign=top;spacingLeft=4;spacingRight=4;overflow=hidden;rotatable=0;points=[[0,0.5],[1,0.5]];portConstraint=eastwest;whiteSpace=wrap;html=1;" vertex="1" parent="OOepyNLVdoa-JjVEculD-24">
          <mxGeometry y="130" width="140" height="26" as="geometry" />
        </mxCell>
        <mxCell id="OOepyNLVdoa-JjVEculD-31" value="+ stock: int" style="text;strokeColor=none;fillColor=none;align=left;verticalAlign=top;spacingLeft=4;spacingRight=4;overflow=hidden;rotatable=0;points=[[0,0.5],[1,0.5]];portConstraint=eastwest;whiteSpace=wrap;html=1;" vertex="1" parent="OOepyNLVdoa-JjVEculD-24">
          <mxGeometry y="156" width="140" height="26" as="geometry" />
        </mxCell>
        <mxCell id="OOepyNLVdoa-JjVEculD-32" value="" style="endArrow=diamondThin;endFill=0;endSize=24;html=1;rounded=0;entryX=-0.014;entryY=0.148;entryDx=0;entryDy=0;entryPerimeter=0;exitX=1.011;exitY=0.084;exitDx=0;exitDy=0;exitPerimeter=0;" edge="1" parent="1" source="OOepyNLVdoa-JjVEculD-24" target="OOepyNLVdoa-JjVEculD-18">
          <mxGeometry width="160" relative="1" as="geometry">
            <mxPoint x="409" y="320" as="sourcePoint" />
            <mxPoint x="569" y="320" as="targetPoint" />
          </mxGeometry>
        </mxCell>
        <mxCell id="OOepyNLVdoa-JjVEculD-34" value="" style="endArrow=diamondThin;endFill=0;endSize=24;html=1;rounded=0;entryX=0.944;entryY=-0.047;entryDx=0;entryDy=0;exitX=0.007;exitY=0.055;exitDx=0;exitDy=0;exitPerimeter=0;entryPerimeter=0;" edge="1" parent="1" source="OOepyNLVdoa-JjVEculD-24" target="OOepyNLVdoa-JjVEculD-6">
          <mxGeometry width="160" relative="1" as="geometry">
            <mxPoint x="310" y="300" as="sourcePoint" />
            <mxPoint x="470" y="300" as="targetPoint" />
            <Array as="points">
              <mxPoint x="240" y="200" />
            </Array>
          </mxGeometry>
        </mxCell>
        <mxCell id="OOepyNLVdoa-JjVEculD-35" value="Sale" style="swimlane;fontStyle=0;childLayout=stackLayout;horizontal=1;startSize=26;fillColor=none;horizontalStack=0;resizeParent=1;resizeParentMax=0;resizeLast=0;collapsible=1;marginBottom=0;whiteSpace=wrap;html=1;" vertex="1" parent="1">
          <mxGeometry x="90" y="220" width="140" height="104" as="geometry" />
        </mxCell>
        <mxCell id="OOepyNLVdoa-JjVEculD-36" value="+ sale_id: int" style="text;strokeColor=none;fillColor=none;align=left;verticalAlign=top;spacingLeft=4;spacingRight=4;overflow=hidden;rotatable=0;points=[[0,0.5],[1,0.5]];portConstraint=eastwest;whiteSpace=wrap;html=1;" vertex="1" parent="OOepyNLVdoa-JjVEculD-35">
          <mxGeometry y="26" width="140" height="26" as="geometry" />
        </mxCell>
        <mxCell id="OOepyNLVdoa-JjVEculD-37" value="+ total_itens: int" style="text;strokeColor=none;fillColor=none;align=left;verticalAlign=top;spacingLeft=4;spacingRight=4;overflow=hidden;rotatable=0;points=[[0,0.5],[1,0.5]];portConstraint=eastwest;whiteSpace=wrap;html=1;" vertex="1" parent="OOepyNLVdoa-JjVEculD-35">
          <mxGeometry y="52" width="140" height="26" as="geometry" />
        </mxCell>
        <mxCell id="OOepyNLVdoa-JjVEculD-38" value="+ total_price: float" style="text;strokeColor=none;fillColor=none;align=left;verticalAlign=top;spacingLeft=4;spacingRight=4;overflow=hidden;rotatable=0;points=[[0,0.5],[1,0.5]];portConstraint=eastwest;whiteSpace=wrap;html=1;" vertex="1" parent="OOepyNLVdoa-JjVEculD-35">
          <mxGeometry y="78" width="140" height="26" as="geometry" />
        </mxCell>
        <mxCell id="OOepyNLVdoa-JjVEculD-39" value="" style="endArrow=diamondThin;endFill=1;endSize=24;html=1;rounded=0;entryX=0.5;entryY=0;entryDx=0;entryDy=0;exitX=0.788;exitY=-0.008;exitDx=0;exitDy=0;exitPerimeter=0;" edge="1" parent="1" source="OOepyNLVdoa-JjVEculD-35" target="OOepyNLVdoa-JjVEculD-24">
          <mxGeometry width="160" relative="1" as="geometry">
            <mxPoint x="210" y="200" as="sourcePoint" />
            <mxPoint x="480" y="280" as="targetPoint" />
            <Array as="points">
              <mxPoint x="200" y="160" />
              <mxPoint x="420" y="160" />
            </Array>
          </mxGeometry>
        </mxCell>
        <mxCell id="OOepyNLVdoa-JjVEculD-49" value="1...*" style="edgeLabel;html=1;align=center;verticalAlign=middle;resizable=0;points=[];" vertex="1" connectable="0" parent="OOepyNLVdoa-JjVEculD-39">
          <mxGeometry x="0.7164" relative="1" as="geometry">
            <mxPoint as="offset" />
          </mxGeometry>
        </mxCell>
        <mxCell id="OOepyNLVdoa-JjVEculD-41" value="Purchase" style="swimlane;fontStyle=0;childLayout=stackLayout;horizontal=1;startSize=26;fillColor=none;horizontalStack=0;resizeParent=1;resizeParentMax=0;resizeLast=0;collapsible=1;marginBottom=0;whiteSpace=wrap;html=1;" vertex="1" parent="1">
          <mxGeometry x="810" y="400" width="140" height="52" as="geometry" />
        </mxCell>
        <mxCell id="OOepyNLVdoa-JjVEculD-42" value="+ purchase_id: int" style="text;strokeColor=none;fillColor=none;align=left;verticalAlign=top;spacingLeft=4;spacingRight=4;overflow=hidden;rotatable=0;points=[[0,0.5],[1,0.5]];portConstraint=eastwest;whiteSpace=wrap;html=1;" vertex="1" parent="OOepyNLVdoa-JjVEculD-41">
          <mxGeometry y="26" width="140" height="26" as="geometry" />
        </mxCell>
        <mxCell id="OOepyNLVdoa-JjVEculD-45" value="" style="endArrow=diamondThin;endFill=1;endSize=24;html=1;rounded=0;exitX=0.214;exitY=0;exitDx=0;exitDy=0;exitPerimeter=0;entryX=0.5;entryY=0;entryDx=0;entryDy=0;" edge="1" parent="1" source="OOepyNLVdoa-JjVEculD-35" target="OOepyNLVdoa-JjVEculD-41">
          <mxGeometry width="160" relative="1" as="geometry">
            <mxPoint x="530" y="380" as="sourcePoint" />
            <mxPoint x="690" y="380" as="targetPoint" />
            <Array as="points">
              <mxPoint x="120" y="150" />
              <mxPoint x="880" y="150" />
            </Array>
          </mxGeometry>
        </mxCell>
        <mxCell id="OOepyNLVdoa-JjVEculD-48" value="" style="endArrow=diamondThin;endFill=1;endSize=24;html=1;rounded=0;entryX=1;entryY=0.112;entryDx=0;entryDy=0;entryPerimeter=0;exitX=0;exitY=0.25;exitDx=0;exitDy=0;" edge="1" parent="1" source="OOepyNLVdoa-JjVEculD-41" target="OOepyNLVdoa-JjVEculD-10">
          <mxGeometry width="160" relative="1" as="geometry">
            <mxPoint x="520" y="410" as="sourcePoint" />
            <mxPoint x="680" y="410" as="targetPoint" />
          </mxGeometry>
        </mxCell>
        <mxCell id="OOepyNLVdoa-JjVEculD-50" value="UserRepository" style="swimlane;fontStyle=1;align=center;verticalAlign=top;childLayout=stackLayout;horizontal=1;startSize=26;horizontalStack=0;resizeParent=1;resizeParentMax=0;resizeLast=0;collapsible=1;marginBottom=0;whiteSpace=wrap;html=1;" vertex="1" parent="1">
          <mxGeometry x="790" y="558" width="200" height="272" as="geometry" />
        </mxCell>
        <mxCell id="OOepyNLVdoa-JjVEculD-53" value="+ saveUser(user : User) : User" style="text;strokeColor=none;fillColor=none;align=left;verticalAlign=top;spacingLeft=4;spacingRight=4;overflow=hidden;rotatable=0;points=[[0,0.5],[1,0.5]];portConstraint=eastwest;whiteSpace=wrap;html=1;" vertex="1" parent="OOepyNLVdoa-JjVEculD-50">
          <mxGeometry y="26" width="200" height="26" as="geometry" />
        </mxCell>
        <mxCell id="OOepyNLVdoa-JjVEculD-55" value="+ deletUser(user_id : int) : void" style="text;strokeColor=none;fillColor=none;align=left;verticalAlign=top;spacingLeft=4;spacingRight=4;overflow=hidden;rotatable=0;points=[[0,0.5],[1,0.5]];portConstraint=eastwest;whiteSpace=wrap;html=1;" vertex="1" parent="OOepyNLVdoa-JjVEculD-50">
          <mxGeometry y="52" width="200" height="26" as="geometry" />
        </mxCell>
        <mxCell id="OOepyNLVdoa-JjVEculD-56" value="+ updateUser(user_id: int,&lt;br&gt;updated_user : User) : User" style="text;strokeColor=none;fillColor=none;align=left;verticalAlign=top;spacingLeft=4;spacingRight=4;overflow=hidden;rotatable=0;points=[[0,0.5],[1,0.5]];portConstraint=eastwest;whiteSpace=wrap;html=1;" vertex="1" parent="OOepyNLVdoa-JjVEculD-50">
          <mxGeometry y="78" width="200" height="44" as="geometry" />
        </mxCell>
        <mxCell id="OOepyNLVdoa-JjVEculD-58" value="+ getByEmail(user_email&lt;br&gt;&lt;span style=&quot;white-space: pre;&quot;&gt;&#x9;&lt;/span&gt;: string) : User" style="text;strokeColor=none;fillColor=none;align=left;verticalAlign=top;spacingLeft=4;spacingRight=4;overflow=hidden;rotatable=0;points=[[0,0.5],[1,0.5]];portConstraint=eastwest;whiteSpace=wrap;html=1;" vertex="1" parent="OOepyNLVdoa-JjVEculD-50">
          <mxGeometry y="122" width="200" height="40" as="geometry" />
        </mxCell>
        <mxCell id="OOepyNLVdoa-JjVEculD-59" value="- hashedPassword(password&lt;br&gt;&lt;span style=&quot;white-space: pre;&quot;&gt;&#x9;&lt;/span&gt;: string) : string" style="text;strokeColor=none;fillColor=none;align=left;verticalAlign=top;spacingLeft=4;spacingRight=4;overflow=hidden;rotatable=0;points=[[0,0.5],[1,0.5]];portConstraint=eastwest;whiteSpace=wrap;html=1;" vertex="1" parent="OOepyNLVdoa-JjVEculD-50">
          <mxGeometry y="162" width="200" height="40" as="geometry" />
        </mxCell>
        <mxCell id="OOepyNLVdoa-JjVEculD-60" value="+ checkPasswordHash(&lt;br&gt;&lt;span style=&quot;white-space: pre;&quot;&gt;&#x9;&lt;/span&gt;input_password : string&lt;br&gt;&lt;span style=&quot;white-space: pre;&quot;&gt;&#x9;&lt;/span&gt;database_password : string &lt;br&gt;&lt;span style=&quot;white-space: pre;&quot;&gt;&#x9;&lt;/span&gt;) : boolean" style="text;strokeColor=none;fillColor=none;align=left;verticalAlign=top;spacingLeft=4;spacingRight=4;overflow=hidden;rotatable=0;points=[[0,0.5],[1,0.5]];portConstraint=eastwest;whiteSpace=wrap;html=1;" vertex="1" parent="OOepyNLVdoa-JjVEculD-50">
          <mxGeometry y="202" width="200" height="70" as="geometry" />
        </mxCell>
        <mxCell id="OOepyNLVdoa-JjVEculD-61" value="AuthService" style="swimlane;fontStyle=1;align=center;verticalAlign=top;childLayout=stackLayout;horizontal=1;startSize=26;horizontalStack=0;resizeParent=1;resizeParentMax=0;resizeLast=0;collapsible=1;marginBottom=0;whiteSpace=wrap;html=1;" vertex="1" parent="1">
          <mxGeometry x="1110" y="558" width="160" height="142" as="geometry" />
        </mxCell>
        <mxCell id="OOepyNLVdoa-JjVEculD-64" value="+ authenticateUser(&lt;br&gt;&lt;span style=&quot;white-space: pre;&quot;&gt;&#x9;&lt;/span&gt;user_email : string,&lt;br&gt;&lt;span style=&quot;white-space: pre;&quot;&gt;&#x9;&lt;/span&gt;user_password : string&lt;br&gt;&lt;span style=&quot;white-space: pre;&quot;&gt;&#x9;&lt;/span&gt;) : string" style="text;strokeColor=none;fillColor=none;align=left;verticalAlign=top;spacingLeft=4;spacingRight=4;overflow=hidden;rotatable=0;points=[[0,0.5],[1,0.5]];portConstraint=eastwest;whiteSpace=wrap;html=1;" vertex="1" parent="OOepyNLVdoa-JjVEculD-61">
          <mxGeometry y="26" width="160" height="76" as="geometry" />
        </mxCell>
        <mxCell id="OOepyNLVdoa-JjVEculD-66" value="+ decodeToken( &lt;br&gt;&lt;span style=&quot;white-space: pre;&quot;&gt;&#x9;&lt;/span&gt;token : string) : User" style="text;strokeColor=none;fillColor=none;align=left;verticalAlign=top;spacingLeft=4;spacingRight=4;overflow=hidden;rotatable=0;points=[[0,0.5],[1,0.5]];portConstraint=eastwest;whiteSpace=wrap;html=1;" vertex="1" parent="OOepyNLVdoa-JjVEculD-61">
          <mxGeometry y="102" width="160" height="40" as="geometry" />
        </mxCell>
        <mxCell id="OOepyNLVdoa-JjVEculD-65" value="" style="endArrow=diamondThin;endFill=1;endSize=24;html=1;rounded=0;entryX=1;entryY=0.037;entryDx=0;entryDy=0;entryPerimeter=0;exitX=-0.001;exitY=0.069;exitDx=0;exitDy=0;exitPerimeter=0;" edge="1" parent="1" source="OOepyNLVdoa-JjVEculD-61" target="OOepyNLVdoa-JjVEculD-50">
          <mxGeometry width="160" relative="1" as="geometry">
            <mxPoint x="980" y="658" as="sourcePoint" />
            <mxPoint x="1140" y="658" as="targetPoint" />
          </mxGeometry>
        </mxCell>
        <mxCell id="OOepyNLVdoa-JjVEculD-67" value="" style="endArrow=diamondThin;endFill=1;endSize=24;html=1;rounded=0;exitX=0.489;exitY=1.097;exitDx=0;exitDy=0;exitPerimeter=0;entryX=0.354;entryY=-0.021;entryDx=0;entryDy=0;entryPerimeter=0;" edge="1" parent="1" source="OOepyNLVdoa-JjVEculD-38" target="OOepyNLVdoa-JjVEculD-6">
          <mxGeometry width="160" relative="1" as="geometry">
            <mxPoint x="330" y="360" as="sourcePoint" />
            <mxPoint x="490" y="360" as="targetPoint" />
          </mxGeometry>
        </mxCell>
        <mxCell id="OOepyNLVdoa-JjVEculD-68" value="ProductRepository" style="swimlane;fontStyle=0;childLayout=stackLayout;horizontal=1;startSize=26;fillColor=none;horizontalStack=0;resizeParent=1;resizeParentMax=0;resizeLast=0;collapsible=1;marginBottom=0;whiteSpace=wrap;html=1;" vertex="1" parent="1">
          <mxGeometry x="320" y="560" width="200" height="270" as="geometry" />
        </mxCell>
        <mxCell id="OOepyNLVdoa-JjVEculD-69" value="+ saveProduct( product: Product) &lt;br&gt;: Product" style="text;strokeColor=none;fillColor=none;align=left;verticalAlign=top;spacingLeft=4;spacingRight=4;overflow=hidden;rotatable=0;points=[[0,0.5],[1,0.5]];portConstraint=eastwest;whiteSpace=wrap;html=1;" vertex="1" parent="OOepyNLVdoa-JjVEculD-68">
          <mxGeometry y="26" width="200" height="34" as="geometry" />
        </mxCell>
        <mxCell id="OOepyNLVdoa-JjVEculD-70" value="+ deleteProduct(product_id: int) &lt;br&gt;: void" style="text;strokeColor=none;fillColor=none;align=left;verticalAlign=top;spacingLeft=4;spacingRight=4;overflow=hidden;rotatable=0;points=[[0,0.5],[1,0.5]];portConstraint=eastwest;whiteSpace=wrap;html=1;" vertex="1" parent="OOepyNLVdoa-JjVEculD-68">
          <mxGeometry y="60" width="200" height="40" as="geometry" />
        </mxCell>
        <mxCell id="OOepyNLVdoa-JjVEculD-72" value="+ updateProduct(&lt;br&gt;&lt;span style=&quot;white-space: pre;&quot;&gt;&#x9;&lt;/span&gt;product_id : int,&lt;br&gt;&lt;span style=&quot;white-space: pre;&quot;&gt;&#x9;&lt;/span&gt;updatedProduct&lt;br&gt;&lt;span style=&quot;white-space: pre;&quot;&gt;&#x9;&lt;/span&gt;: Product) &lt;br&gt;: Product" style="text;strokeColor=none;fillColor=none;align=left;verticalAlign=top;spacingLeft=4;spacingRight=4;overflow=hidden;rotatable=0;points=[[0,0.5],[1,0.5]];portConstraint=eastwest;whiteSpace=wrap;html=1;" vertex="1" parent="OOepyNLVdoa-JjVEculD-68">
          <mxGeometry y="100" width="200" height="80" as="geometry" />
        </mxCell>
        <mxCell id="OOepyNLVdoa-JjVEculD-73" value="+ getProductById(&lt;br&gt;&lt;span style=&quot;white-space: pre;&quot;&gt;&#x9;&lt;/span&gt;product_id : int&lt;br&gt;&lt;span style=&quot;white-space: pre;&quot;&gt;&#x9;&lt;/span&gt;) : Product&lt;br&gt;" style="text;strokeColor=none;fillColor=none;align=left;verticalAlign=top;spacingLeft=4;spacingRight=4;overflow=hidden;rotatable=0;points=[[0,0.5],[1,0.5]];portConstraint=eastwest;whiteSpace=wrap;html=1;" vertex="1" parent="OOepyNLVdoa-JjVEculD-68">
          <mxGeometry y="180" width="200" height="60" as="geometry" />
        </mxCell>
        <mxCell id="OOepyNLVdoa-JjVEculD-74" value="+ getProducts( ) : Product[ ]" style="text;strokeColor=none;fillColor=none;align=left;verticalAlign=top;spacingLeft=4;spacingRight=4;overflow=hidden;rotatable=0;points=[[0,0.5],[1,0.5]];portConstraint=eastwest;whiteSpace=wrap;html=1;" vertex="1" parent="OOepyNLVdoa-JjVEculD-68">
          <mxGeometry y="240" width="200" height="30" as="geometry" />
        </mxCell>
        <mxCell id="OOepyNLVdoa-JjVEculD-75" value="SaleRepository" style="swimlane;fontStyle=0;childLayout=stackLayout;horizontal=1;startSize=26;fillColor=none;horizontalStack=0;resizeParent=1;resizeParentMax=0;resizeLast=0;collapsible=1;marginBottom=0;whiteSpace=wrap;html=1;" vertex="1" parent="1">
          <mxGeometry x="78" y="560" width="200" height="196" as="geometry" />
        </mxCell>
        <mxCell id="OOepyNLVdoa-JjVEculD-76" value="+ saveSale( sale: Sale ) : Sale" style="text;strokeColor=none;fillColor=none;align=left;verticalAlign=top;spacingLeft=4;spacingRight=4;overflow=hidden;rotatable=0;points=[[0,0.5],[1,0.5]];portConstraint=eastwest;whiteSpace=wrap;html=1;" vertex="1" parent="OOepyNLVdoa-JjVEculD-75">
          <mxGeometry y="26" width="200" height="26" as="geometry" />
        </mxCell>
        <mxCell id="OOepyNLVdoa-JjVEculD-77" value="+ deleteSale( sale_id : int) : void" style="text;strokeColor=none;fillColor=none;align=left;verticalAlign=top;spacingLeft=4;spacingRight=4;overflow=hidden;rotatable=0;points=[[0,0.5],[1,0.5]];portConstraint=eastwest;whiteSpace=wrap;html=1;" vertex="1" parent="OOepyNLVdoa-JjVEculD-75">
          <mxGeometry y="52" width="200" height="26" as="geometry" />
        </mxCell>
        <mxCell id="OOepyNLVdoa-JjVEculD-78" value="+ getSaleById( sale_id : int ) : void" style="text;strokeColor=none;fillColor=none;align=left;verticalAlign=top;spacingLeft=4;spacingRight=4;overflow=hidden;rotatable=0;points=[[0,0.5],[1,0.5]];portConstraint=eastwest;whiteSpace=wrap;html=1;" vertex="1" parent="OOepyNLVdoa-JjVEculD-75">
          <mxGeometry y="78" width="200" height="26" as="geometry" />
        </mxCell>
        <mxCell id="OOepyNLVdoa-JjVEculD-79" value="+ getSaleByDate( &lt;br&gt;&lt;span style=&quot;white-space: pre;&quot;&gt;&#x9;&lt;/span&gt;start_date : DateTime,&lt;br&gt;&lt;span style=&quot;white-space: pre;&quot;&gt;&#x9;&lt;/span&gt;end_date : DateTime&amp;nbsp;)&amp;nbsp;&lt;br&gt;: Sale [ ]" style="text;strokeColor=none;fillColor=none;align=left;verticalAlign=top;spacingLeft=4;spacingRight=4;overflow=hidden;rotatable=0;points=[[0,0.5],[1,0.5]];portConstraint=eastwest;whiteSpace=wrap;html=1;" vertex="1" parent="OOepyNLVdoa-JjVEculD-75">
          <mxGeometry y="104" width="200" height="66" as="geometry" />
        </mxCell>
        <mxCell id="OOepyNLVdoa-JjVEculD-80" value="+ getSale( ) : Sale [ ]" style="text;strokeColor=none;fillColor=none;align=left;verticalAlign=top;spacingLeft=4;spacingRight=4;overflow=hidden;rotatable=0;points=[[0,0.5],[1,0.5]];portConstraint=eastwest;whiteSpace=wrap;html=1;" vertex="1" parent="OOepyNLVdoa-JjVEculD-75">
          <mxGeometry y="170" width="200" height="26" as="geometry" />
        </mxCell>
        <mxCell id="OOepyNLVdoa-JjVEculD-81" value="PurchaseRepository" style="swimlane;fontStyle=0;childLayout=stackLayout;horizontal=1;startSize=26;fillColor=none;horizontalStack=0;resizeParent=1;resizeParentMax=0;resizeLast=0;collapsible=1;marginBottom=0;whiteSpace=wrap;html=1;" vertex="1" parent="1">
          <mxGeometry x="560" y="558" width="200" height="160" as="geometry" />
        </mxCell>
        <mxCell id="OOepyNLVdoa-JjVEculD-82" value="+ savePurchase( purchase &lt;br&gt;&lt;span style=&quot;white-space: pre;&quot;&gt;&#x9;&lt;/span&gt;: Purchase) : Purchase" style="text;strokeColor=none;fillColor=none;align=left;verticalAlign=top;spacingLeft=4;spacingRight=4;overflow=hidden;rotatable=0;points=[[0,0.5],[1,0.5]];portConstraint=eastwest;whiteSpace=wrap;html=1;" vertex="1" parent="OOepyNLVdoa-JjVEculD-81">
          <mxGeometry y="26" width="200" height="34" as="geometry" />
        </mxCell>
        <mxCell id="OOepyNLVdoa-JjVEculD-83" value="+ deletePurchase(purchase_id: int) &lt;br&gt;: void" style="text;strokeColor=none;fillColor=none;align=left;verticalAlign=top;spacingLeft=4;spacingRight=4;overflow=hidden;rotatable=0;points=[[0,0.5],[1,0.5]];portConstraint=eastwest;whiteSpace=wrap;html=1;" vertex="1" parent="OOepyNLVdoa-JjVEculD-81">
          <mxGeometry y="60" width="200" height="40" as="geometry" />
        </mxCell>
        <mxCell id="OOepyNLVdoa-JjVEculD-85" value="+ getProductById(&lt;br&gt;&lt;span style=&quot;white-space: pre;&quot;&gt;&#x9;&lt;/span&gt;product_id : int&lt;br&gt;&lt;span style=&quot;white-space: pre;&quot;&gt;&#x9;&lt;/span&gt;) : Product&lt;br&gt;" style="text;strokeColor=none;fillColor=none;align=left;verticalAlign=top;spacingLeft=4;spacingRight=4;overflow=hidden;rotatable=0;points=[[0,0.5],[1,0.5]];portConstraint=eastwest;whiteSpace=wrap;html=1;" vertex="1" parent="OOepyNLVdoa-JjVEculD-81">
          <mxGeometry y="100" width="200" height="60" as="geometry" />
        </mxCell>
        <mxCell id="OOepyNLVdoa-JjVEculD-87" value="SellerService" style="swimlane;fontStyle=0;childLayout=stackLayout;horizontal=1;startSize=26;fillColor=none;horizontalStack=0;resizeParent=1;resizeParentMax=0;resizeLast=0;collapsible=1;marginBottom=0;whiteSpace=wrap;html=1;" vertex="1" parent="1">
          <mxGeometry x="78" y="910" width="202" height="176" as="geometry" />
        </mxCell>
        <mxCell id="OOepyNLVdoa-JjVEculD-89" value="- saveSale( products : Product [ ] )&lt;br&gt;: void" style="text;strokeColor=none;fillColor=none;align=left;verticalAlign=top;spacingLeft=4;spacingRight=4;overflow=hidden;rotatable=0;points=[[0,0.5],[1,0.5]];portConstraint=eastwest;whiteSpace=wrap;html=1;" vertex="1" parent="OOepyNLVdoa-JjVEculD-87">
          <mxGeometry y="26" width="202" height="40" as="geometry" />
        </mxCell>
        <mxCell id="OOepyNLVdoa-JjVEculD-93" value="+ getTotalSales( user_id ; int )&lt;br&gt;totalVolume : int,&lt;br&gt;totalNet : float" style="text;strokeColor=none;fillColor=none;align=left;verticalAlign=top;spacingLeft=4;spacingRight=4;overflow=hidden;rotatable=0;points=[[0,0.5],[1,0.5]];portConstraint=eastwest;whiteSpace=wrap;html=1;" vertex="1" parent="OOepyNLVdoa-JjVEculD-87">
          <mxGeometry y="66" width="202" height="70" as="geometry" />
        </mxCell>
        <mxCell id="OOepyNLVdoa-JjVEculD-95" value="+ getMyProducts( user_id ; int )&lt;br&gt;: Products [ ]" style="text;strokeColor=none;fillColor=none;align=left;verticalAlign=top;spacingLeft=4;spacingRight=4;overflow=hidden;rotatable=0;points=[[0,0.5],[1,0.5]];portConstraint=eastwest;whiteSpace=wrap;html=1;" vertex="1" parent="OOepyNLVdoa-JjVEculD-87">
          <mxGeometry y="136" width="202" height="40" as="geometry" />
        </mxCell>
        <mxCell id="OOepyNLVdoa-JjVEculD-91" value="" style="endArrow=diamondThin;endFill=0;endSize=24;html=1;rounded=0;exitX=0.5;exitY=0;exitDx=0;exitDy=0;" edge="1" parent="1" source="OOepyNLVdoa-JjVEculD-87">
          <mxGeometry width="160" relative="1" as="geometry">
            <mxPoint x="250" y="800" as="sourcePoint" />
            <mxPoint x="360" y="830" as="targetPoint" />
            <Array as="points">
              <mxPoint x="179" y="880" />
              <mxPoint x="360" y="880" />
            </Array>
          </mxGeometry>
        </mxCell>
        <mxCell id="OOepyNLVdoa-JjVEculD-92" value="" style="endArrow=diamondThin;endFill=0;endSize=24;html=1;rounded=0;entryX=0.408;entryY=1.154;entryDx=0;entryDy=0;entryPerimeter=0;exitX=0.408;exitY=-0.022;exitDx=0;exitDy=0;exitPerimeter=0;" edge="1" parent="1" source="OOepyNLVdoa-JjVEculD-87" target="OOepyNLVdoa-JjVEculD-80">
          <mxGeometry width="160" relative="1" as="geometry">
            <mxPoint x="250" y="830" as="sourcePoint" />
            <mxPoint x="410" y="830" as="targetPoint" />
          </mxGeometry>
        </mxCell>
        <mxCell id="OOepyNLVdoa-JjVEculD-96" value="Customer" style="swimlane;fontStyle=0;childLayout=stackLayout;horizontal=1;startSize=26;fillColor=none;horizontalStack=0;resizeParent=1;resizeParentMax=0;resizeLast=0;collapsible=1;marginBottom=0;whiteSpace=wrap;html=1;" vertex="1" parent="1">
          <mxGeometry x="560" y="880" width="200" height="130" as="geometry" />
        </mxCell>
        <mxCell id="OOepyNLVdoa-JjVEculD-97" value="+ purchaseProducts(&amp;nbsp;&lt;br&gt;&lt;span style=&quot;white-space: pre;&quot;&gt;&#x9;&lt;/span&gt;user_id : int,&lt;br&gt;&lt;span style=&quot;white-space: pre;&quot;&gt;&#x9;&lt;/span&gt;products : Product [ ] )&lt;br&gt;: Purchase" style="text;strokeColor=none;fillColor=none;align=left;verticalAlign=top;spacingLeft=4;spacingRight=4;overflow=hidden;rotatable=0;points=[[0,0.5],[1,0.5]];portConstraint=eastwest;whiteSpace=wrap;html=1;" vertex="1" parent="OOepyNLVdoa-JjVEculD-96">
          <mxGeometry y="26" width="200" height="64" as="geometry" />
        </mxCell>
        <mxCell id="OOepyNLVdoa-JjVEculD-106" value="+ cancelPurchase( purchase_id&lt;br&gt;&lt;span style=&quot;white-space: pre;&quot;&gt;&#x9;&lt;/span&gt;: int ) : void" style="text;strokeColor=none;fillColor=none;align=left;verticalAlign=top;spacingLeft=4;spacingRight=4;overflow=hidden;rotatable=0;points=[[0,0.5],[1,0.5]];portConstraint=eastwest;whiteSpace=wrap;html=1;" vertex="1" parent="OOepyNLVdoa-JjVEculD-96">
          <mxGeometry y="90" width="200" height="40" as="geometry" />
        </mxCell>
        <mxCell id="OOepyNLVdoa-JjVEculD-100" value="" style="endArrow=diamondThin;endFill=0;endSize=24;html=1;rounded=0;" edge="1" parent="1" target="OOepyNLVdoa-JjVEculD-85">
          <mxGeometry width="160" relative="1" as="geometry">
            <mxPoint x="660" y="876" as="sourcePoint" />
            <mxPoint x="780" y="810" as="targetPoint" />
          </mxGeometry>
        </mxCell>
        <mxCell id="OOepyNLVdoa-JjVEculD-101" value="ShoppingCart" style="swimlane;fontStyle=0;childLayout=stackLayout;horizontal=1;startSize=26;fillColor=none;horizontalStack=0;resizeParent=1;resizeParentMax=0;resizeLast=0;collapsible=1;marginBottom=0;whiteSpace=wrap;html=1;" vertex="1" parent="1">
          <mxGeometry x="870" y="880" width="200" height="140" as="geometry" />
        </mxCell>
        <mxCell id="OOepyNLVdoa-JjVEculD-102" value="+ addProduct ( product : Product )&lt;br&gt;: Product" style="text;strokeColor=none;fillColor=none;align=left;verticalAlign=top;spacingLeft=4;spacingRight=4;overflow=hidden;rotatable=0;points=[[0,0.5],[1,0.5]];portConstraint=eastwest;whiteSpace=wrap;html=1;" vertex="1" parent="OOepyNLVdoa-JjVEculD-101">
          <mxGeometry y="26" width="200" height="44" as="geometry" />
        </mxCell>
        <mxCell id="OOepyNLVdoa-JjVEculD-103" value="+ removeProduct( product_id ) &lt;br&gt;: void" style="text;strokeColor=none;fillColor=none;align=left;verticalAlign=top;spacingLeft=4;spacingRight=4;overflow=hidden;rotatable=0;points=[[0,0.5],[1,0.5]];portConstraint=eastwest;whiteSpace=wrap;html=1;" vertex="1" parent="OOepyNLVdoa-JjVEculD-101">
          <mxGeometry y="70" width="200" height="30" as="geometry" />
        </mxCell>
        <mxCell id="OOepyNLVdoa-JjVEculD-104" value="+ completePurchases ( &lt;br&gt;products : Product [ ] ) : Purchase" style="text;strokeColor=none;fillColor=none;align=left;verticalAlign=top;spacingLeft=4;spacingRight=4;overflow=hidden;rotatable=0;points=[[0,0.5],[1,0.5]];portConstraint=eastwest;whiteSpace=wrap;html=1;" vertex="1" parent="OOepyNLVdoa-JjVEculD-101">
          <mxGeometry y="100" width="200" height="40" as="geometry" />
        </mxCell>
        <mxCell id="OOepyNLVdoa-JjVEculD-108" value="" style="endArrow=diamondThin;endFill=0;endSize=24;html=1;rounded=0;entryX=0.009;entryY=0.088;entryDx=0;entryDy=0;entryPerimeter=0;" edge="1" parent="1" target="OOepyNLVdoa-JjVEculD-101">
          <mxGeometry width="160" relative="1" as="geometry">
            <mxPoint x="758" y="893" as="sourcePoint" />
            <mxPoint x="780" y="930" as="targetPoint" />
          </mxGeometry>
        </mxCell>
        <mxCell id="OOepyNLVdoa-JjVEculD-109" value="" style="endArrow=diamondThin;endFill=0;endSize=24;html=1;rounded=0;entryX=0.825;entryY=1.049;entryDx=0;entryDy=0;entryPerimeter=0;exitX=-0.019;exitY=0.051;exitDx=0;exitDy=0;exitPerimeter=0;" edge="1" parent="1" source="OOepyNLVdoa-JjVEculD-103" target="OOepyNLVdoa-JjVEculD-85">
          <mxGeometry width="160" relative="1" as="geometry">
            <mxPoint x="600" y="880" as="sourcePoint" />
            <mxPoint x="760" y="880" as="targetPoint" />
            <Array as="points">
              <mxPoint x="790" y="952" />
              <mxPoint x="790" y="860" />
              <mxPoint x="725" y="860" />
            </Array>
          </mxGeometry>
        </mxCell>
        <mxCell id="NFutixXK1SFjTiJFj9nT-1" value="Order" style="swimlane;fontStyle=0;childLayout=stackLayout;horizontal=1;startSize=26;fillColor=none;horizontalStack=0;resizeParent=1;resizeParentMax=0;resizeLast=0;collapsible=1;marginBottom=0;whiteSpace=wrap;html=1;" vertex="1" parent="1">
          <mxGeometry x="1010" y="330" width="140" height="78" as="geometry" />
        </mxCell>
        <mxCell id="NFutixXK1SFjTiJFj9nT-2" value="+ order_id : int" style="text;strokeColor=none;fillColor=none;align=left;verticalAlign=top;spacingLeft=4;spacingRight=4;overflow=hidden;rotatable=0;points=[[0,0.5],[1,0.5]];portConstraint=eastwest;whiteSpace=wrap;html=1;" vertex="1" parent="NFutixXK1SFjTiJFj9nT-1">
          <mxGeometry y="26" width="140" height="26" as="geometry" />
        </mxCell>
        <mxCell id="NFutixXK1SFjTiJFj9nT-10" value="+ status : boolean" style="text;strokeColor=none;fillColor=none;align=left;verticalAlign=top;spacingLeft=4;spacingRight=4;overflow=hidden;rotatable=0;points=[[0,0.5],[1,0.5]];portConstraint=eastwest;whiteSpace=wrap;html=1;" vertex="1" parent="NFutixXK1SFjTiJFj9nT-1">
          <mxGeometry y="52" width="140" height="26" as="geometry" />
        </mxCell>
        <mxCell id="NFutixXK1SFjTiJFj9nT-5" value="" style="endArrow=diamondThin;endFill=1;endSize=24;html=1;rounded=0;entryX=0.5;entryY=0;entryDx=0;entryDy=0;exitX=0.75;exitY=0;exitDx=0;exitDy=0;" edge="1" parent="1" source="OOepyNLVdoa-JjVEculD-24" target="NFutixXK1SFjTiJFj9nT-1">
          <mxGeometry width="160" relative="1" as="geometry">
            <mxPoint x="449" y="160" as="sourcePoint" />
            <mxPoint x="1090" y="320" as="targetPoint" />
            <Array as="points">
              <mxPoint x="454" y="160" />
              <mxPoint x="1080" y="160" />
            </Array>
          </mxGeometry>
        </mxCell>
        <mxCell id="NFutixXK1SFjTiJFj9nT-6" value="OrderRepository" style="swimlane;fontStyle=0;childLayout=stackLayout;horizontal=1;startSize=26;fillColor=none;horizontalStack=0;resizeParent=1;resizeParentMax=0;resizeLast=0;collapsible=1;marginBottom=0;whiteSpace=wrap;html=1;" vertex="1" parent="1">
          <mxGeometry x="390" y="1169" width="202" height="180" as="geometry" />
        </mxCell>
        <mxCell id="NFutixXK1SFjTiJFj9nT-8" value="+ saveOrder( order : Order ) : Order" style="text;strokeColor=none;fillColor=none;align=left;verticalAlign=top;spacingLeft=4;spacingRight=4;overflow=hidden;rotatable=0;points=[[0,0.5],[1,0.5]];portConstraint=eastwest;whiteSpace=wrap;html=1;" vertex="1" parent="NFutixXK1SFjTiJFj9nT-6">
          <mxGeometry y="26" width="202" height="26" as="geometry" />
        </mxCell>
        <mxCell id="NFutixXK1SFjTiJFj9nT-9" value="+ deleteOrder( order_id : int ) : void" style="text;strokeColor=none;fillColor=none;align=left;verticalAlign=top;spacingLeft=4;spacingRight=4;overflow=hidden;rotatable=0;points=[[0,0.5],[1,0.5]];portConstraint=eastwest;whiteSpace=wrap;html=1;" vertex="1" parent="NFutixXK1SFjTiJFj9nT-6">
          <mxGeometry y="52" width="202" height="26" as="geometry" />
        </mxCell>
        <mxCell id="NFutixXK1SFjTiJFj9nT-11" value="+ updateOrder ( &lt;br&gt;&lt;span style=&quot;white-space: pre;&quot;&gt;&#x9;&lt;/span&gt;order_id : int,&lt;br&gt;&lt;span style=&quot;white-space: pre;&quot;&gt;&#x9;&lt;/span&gt;orderUpdated : Order)&lt;br&gt;: Order" style="text;strokeColor=none;fillColor=none;align=left;verticalAlign=top;spacingLeft=4;spacingRight=4;overflow=hidden;rotatable=0;points=[[0,0.5],[1,0.5]];portConstraint=eastwest;whiteSpace=wrap;html=1;" vertex="1" parent="NFutixXK1SFjTiJFj9nT-6">
          <mxGeometry y="78" width="202" height="62" as="geometry" />
        </mxCell>
        <mxCell id="NFutixXK1SFjTiJFj9nT-12" value="+ getOrderById( order_id : int ) &lt;br&gt;: Order" style="text;strokeColor=none;fillColor=none;align=left;verticalAlign=top;spacingLeft=4;spacingRight=4;overflow=hidden;rotatable=0;points=[[0,0.5],[1,0.5]];portConstraint=eastwest;whiteSpace=wrap;html=1;" vertex="1" parent="NFutixXK1SFjTiJFj9nT-6">
          <mxGeometry y="140" width="202" height="40" as="geometry" />
        </mxCell>
        <mxCell id="NFutixXK1SFjTiJFj9nT-13" value="" style="endArrow=diamondThin;endFill=0;endSize=24;html=1;rounded=0;entryX=0.527;entryY=1;entryDx=0;entryDy=0;entryPerimeter=0;exitX=0.998;exitY=0.08;exitDx=0;exitDy=0;exitPerimeter=0;" edge="1" parent="1" source="NFutixXK1SFjTiJFj9nT-6" target="OOepyNLVdoa-JjVEculD-106">
          <mxGeometry width="160" relative="1" as="geometry">
            <mxPoint x="430" y="1040" as="sourcePoint" />
            <mxPoint x="590" y="1040" as="targetPoint" />
            <Array as="points">
              <mxPoint x="666" y="1184" />
            </Array>
          </mxGeometry>
        </mxCell>
        <mxCell id="NFutixXK1SFjTiJFj9nT-14" value="" style="endArrow=diamondThin;endFill=0;endSize=24;html=1;rounded=0;exitX=-0.006;exitY=0.07;exitDx=0;exitDy=0;exitPerimeter=0;entryX=0.456;entryY=1.061;entryDx=0;entryDy=0;entryPerimeter=0;" edge="1" parent="1" source="NFutixXK1SFjTiJFj9nT-6" target="OOepyNLVdoa-JjVEculD-95">
          <mxGeometry width="160" relative="1" as="geometry">
            <mxPoint x="200" y="1130" as="sourcePoint" />
            <mxPoint x="360" y="1130" as="targetPoint" />
            <Array as="points">
              <mxPoint x="170" y="1180" />
            </Array>
          </mxGeometry>
        </mxCell>
      </root>
    </mxGraphModel>
  </diagram>
</mxfile>
